<svg xmlns="http://www.w3.org/2000/svg" xmlns:xlink="http://www.w3.org/1999/xlink" width="512" zoomAndPan="magnify" viewBox="0 0 384 383.999986" height="512" preserveAspectRatio="xMidYMid meet" version="1.0"><defs><clipPath id="e6b78f8dae"><path d="M 0.160156 0.121094 L 372.878906 0.121094 L 372.878906 369.960938 L 0.160156 369.960938 Z M 0.160156 0.121094 " clip-rule="nonzero"/></clipPath><clipPath id="e69af729c2"><rect x="0" width="373" y="0" height="370"/></clipPath><clipPath id="976205766f"><path d="M 156 113 L 159.914062 113 L 159.914062 120 L 156 120 Z M 156 113 " clip-rule="nonzero"/></clipPath><clipPath id="4e40a64e48"><path d="M 152 110.660156 L 156 110.660156 L 156 114 L 152 114 Z M 152 110.660156 " clip-rule="nonzero"/></clipPath><clipPath id="c2077d4916"><path d="M 150.164062 119 L 154 119 L 154 124.160156 L 150.164062 124.160156 Z M 150.164062 119 " clip-rule="nonzero"/></clipPath></defs><g transform="matrix(1, 0, 0, 1, 2, 9)"><g clip-path="url(#e69af729c2)"><g clip-path="url(#e6b78f8dae)"><path fill="#ffffff" d="M 168.378906 135.46875 C 169.804688 140.464844 171.113281 145.515625 172.605469 150.488281 C 174.75 144.261719 177.007812 138.078125 179.59375 131.992188 C 192.546875 101.53125 210.761719 58.148438 233.246094 34.023438 C 244.105469 22.371094 259.050781 8.265625 274.472656 3.199219 C 297.714844 -4.4375 317.644531 4.921875 332.355469 21.226562 C 337.890625 27.363281 342.675781 34.488281 346.59375 42.011719 C 350.511719 45.445312 354.261719 49.53125 357.796875 54.332031 C 381.925781 87.078125 373.433594 138.488281 355.632812 172.265625 C 337.640625 206.394531 289.832031 257.453125 241.722656 298.847656 C 225.894531 316.910156 208.746094 333.710938 188.398438 347.628906 C 182.035156 351.984375 172.800781 359.566406 163.421875 364.539062 C 156.484375 368.21875 149.421875 370.429688 143.21875 369.585938 C 141.785156 369.390625 139.910156 368.585938 137.804688 367.027344 C 134.273438 364.410156 129.539062 359.402344 124.34375 353.113281 C 107.738281 333.019531 85.851562 299.617188 82.578125 294.5 C 43.878906 234.003906 -1.921875 160.492188 0.390625 85.785156 C 0.828125 71.558594 1.542969 54.230469 6.328125 39.058594 C 9.671875 28.457031 14.992188 18.902344 23.375 11.957031 C 25.4375 10.246094 27.679688 8.789062 30.046875 7.570312 C 32.207031 6.152344 34.449219 4.957031 36.757812 3.976562 C 48.585938 -1.0625 62.308594 -0.601562 76.183594 3.582031 C 102.882812 11.640625 130.171875 33.53125 144.558594 53.734375 C 158.609375 73.46875 166.640625 110.28125 168.378906 135.46875 Z M 133.601562 345.144531 C 126.433594 331.421875 119.671875 317.484375 111.9375 304.054688 C 80.113281 248.796875 47.089844 194.609375 25.75 134.089844 C 19.703125 116.941406 12.613281 93.8125 12.359375 72.109375 C 12.199219 58.21875 14.828125 44.917969 22.675781 34.371094 C 28.582031 26.429688 37.492188 24.132812 46.734375 24.554688 C 56.738281 25.015625 67.164062 28.628906 75.292969 32.515625 C 116.097656 52.015625 141.371094 86.898438 148.675781 131.28125 C 151.472656 148.289062 152.445312 170.121094 162.222656 184.890625 C 163.230469 186.40625 164.433594 186.773438 165.28125 186.886719 C 166.402344 187.03125 167.511719 186.769531 168.515625 185.882812 C 168.992188 185.460938 169.589844 184.6875 169.980469 183.515625 C 170.425781 182.167969 170.707031 179.453125 171.160156 178.222656 C 171.996094 175.929688 172.804688 173.625 173.597656 171.320312 C 174.75 171.839844 175.910156 171.78125 177.074219 171.082031 C 177.4375 170.863281 178.867188 168.648438 178.867188 168.648438 C 178.867188 168.648438 178.746094 168.960938 178.695312 169.066406 C 180.175781 166.09375 181.261719 162.917969 182.339844 159.789062 C 184.636719 153.109375 187.0625 146.558594 190.03125 140.140625 C 198.539062 121.753906 208.910156 104.039062 220.808594 87.632812 C 235.527344 67.347656 259.203125 47.300781 284.023438 38.867188 C 294.21875 35.40625 304.609375 33.945312 314.613281 35.34375 C 321.476562 39.753906 327.0625 46.410156 331.40625 54.425781 C 341.203125 72.503906 344.695312 97.445312 341.800781 120.695312 C 336.371094 164.28125 309.027344 202.851562 282.523438 236.089844 C 279.382812 240.03125 276.265625 243.992188 273.164062 247.953125 C 270.742188 250.0625 268.261719 252.246094 265.722656 254.523438 C 247.890625 270.523438 232.179688 288.605469 214.140625 304.5 C 207.214844 310.601562 193.714844 324.820312 179.457031 337.292969 C 168.960938 344.242188 159.207031 349.933594 150.617188 353.976562 C 148.980469 354.746094 148.148438 356.535156 148.523438 358.230469 C 146.644531 358.828125 144.878906 359.132812 143.25 359.078125 C 142.480469 358.101562 140.792969 355.925781 139.261719 353.695312 C 137.621094 351.296875 135.699219 348.386719 133.601562 345.144531 Z M 19.566406 158.425781 C 38.867188 209.726562 70.566406 260.171875 93.445312 295 C 94.757812 296.996094 100.699219 306.769531 107.871094 318.40625 C 98.539062 305.089844 90.8125 293.265625 88.980469 290.402344 C 63.707031 250.890625 35.140625 205.792969 19.566406 158.425781 Z M 288.039062 245.171875 C 283.496094 249.824219 278.828125 254.480469 274.078125 259.105469 L 277.058594 255.300781 L 278.707031 253.195312 C 281.921875 250.398438 285.03125 247.730469 288.039062 245.171875 Z M 348.59375 126.824219 C 348.472656 127.917969 348.355469 129.003906 348.242188 130.078125 C 342.921875 181.207031 327.792969 200.636719 301.972656 223.363281 C 323.394531 194.59375 342.789062 162.3125 348.59375 126.824219 Z M 355.601562 64.878906 C 356.835938 69.359375 357.746094 73.78125 358.3125 78.019531 C 360.574219 94.957031 357.5625 113.953125 355.804688 130.867188 C 354.210938 146.15625 351.796875 158.726562 348.523438 169.4375 L 348.910156 168.71875 C 364.441406 139.253906 373.027344 95.390625 355.601562 64.878906 Z M 168.179688 161.179688 L 168.148438 161.246094 L 168.148438 161.101562 Z M 153.058594 115.390625 C 154.601562 119.027344 156.015625 122.550781 157.300781 125.914062 C 158.632812 129.402344 159.773438 132.980469 160.835938 136.597656 C 160.898438 137.546875 160.953125 138.476562 160.996094 139.386719 C 161.3125 146.171875 160.8125 153.085938 160.648438 159.964844 C 158.5 149.894531 157.683594 139.210938 156.175781 130.046875 C 155.351562 125.042969 154.3125 120.15625 153.058594 115.390625 Z M 331.597656 40.859375 C 334.6875 42.515625 337.699219 44.539062 340.609375 46.957031 C 345.921875 57.523438 349.417969 68.835938 350.777344 79.027344 C 352.253906 90.078125 351.355469 102.03125 350.09375 113.65625 C 351.539062 91.195312 347.449219 68.078125 338.089844 50.804688 C 336.148438 47.222656 333.984375 43.894531 331.597656 40.859375 Z M 97.226562 21.292969 C 113.9375 31.140625 129.03125 45.03125 138.367188 58.140625 C 146.304688 69.285156 152.144531 86.175781 155.921875 103.078125 C 145.742188 80.960938 131.445312 56.175781 113.789062 36.84375 C 108.558594 31.117188 103.03125 25.867188 97.226562 21.292969 Z M 204.566406 94.238281 C 214.375 73.644531 225.832031 53.125 238.804688 39.207031 C 248.871094 28.40625 262.554688 15.117188 276.847656 10.421875 C 296.914062 3.828125 314.011719 12.242188 326.710938 26.316406 C 328.410156 28.199219 330.03125 30.179688 331.574219 32.246094 C 326.84375 30.109375 321.972656 28.6875 317.007812 27.898438 C 313.878906 26.074219 310.535156 24.628906 306.984375 23.609375 C 292.855469 19.566406 275.253906 22.285156 254.386719 35.695312 C 233.417969 49.175781 218.074219 71.609375 204.566406 94.238281 Z M 33.996094 14.078125 C 41.085938 10.558594 49.511719 9.675781 57.25 10.828125 C 76.40625 13.675781 93.488281 25.886719 108.175781 41.96875 C 111.042969 45.109375 113.816406 48.394531 116.496094 51.796875 C 105.785156 41.398438 93.109375 32.605469 78.570312 25.65625 C 69.613281 21.375 58.105469 17.46875 47.085938 16.960938 C 39.472656 16.613281 32.097656 17.863281 25.804688 21.527344 C 28.316406 18.507812 31.058594 16.039062 33.996094 14.078125 Z M 286.027344 30.28125 C 284.542969 30.703125 283.058594 31.167969 281.578125 31.671875 C 270.652344 35.382812 259.925781 41.210938 250.007812 48.292969 C 252.722656 46.058594 255.550781 43.984375 258.496094 42.089844 C 268.5625 35.617188 277.738281 31.816406 286.027344 30.28125 Z M 286.027344 30.28125 " fill-opacity="1" fill-rule="evenodd"/></g></g></g><g clip-path="url(#976205766f)"><path fill="#ffffff" d="M 156.21875 116.671875 C 156.773438 116.5625 157.246094 116.460938 157.546875 116.03125 C 157.863281 115.578125 158 114.75 158.140625 113.859375 C 158.15625 113.78125 158.222656 113.722656 158.304688 113.726562 C 158.382812 113.730469 158.449219 113.789062 158.457031 113.871094 C 158.53125 114.621094 158.601562 115.324219 158.855469 115.78125 C 159.097656 116.226562 159.515625 116.453125 159.988281 116.703125 C 160.046875 116.734375 160.078125 116.796875 160.070312 116.863281 C 160.0625 116.929688 160.015625 116.980469 159.953125 116.996094 L 159.949219 116.996094 C 159.6875 117.0625 159.46875 117.121094 159.273438 117.320312 C 159.070312 117.53125 158.882812 117.914062 158.71875 118.363281 C 158.558594 118.808594 158.429688 119.296875 158.300781 119.792969 C 158.277344 119.871094 158.207031 119.917969 158.128906 119.910156 C 158.050781 119.902344 157.988281 119.835938 157.988281 119.757812 L 157.988281 119.753906 C 157.972656 119.292969 157.957031 118.855469 157.84375 118.433594 C 157.734375 118.011719 157.527344 117.625 157.253906 117.394531 C 156.980469 117.164062 156.621094 117.078125 156.214844 116.980469 C 156.140625 116.964844 156.089844 116.898438 156.089844 116.824219 C 156.089844 116.75 156.144531 116.683594 156.21875 116.671875 M 156.28125 116.984375 L 156.285156 116.671875 C 156.675781 116.765625 157.117188 116.863281 157.460938 117.148438 C 157.800781 117.4375 158.03125 117.894531 158.152344 118.355469 C 158.273438 118.8125 158.289062 119.289062 158.304688 119.746094 L 157.992188 119.714844 C 158.121094 119.21875 158.253906 118.714844 158.417969 118.253906 C 158.585938 117.800781 158.792969 117.359375 159.046875 117.097656 C 159.3125 116.824219 159.617188 116.753906 159.875 116.6875 L 159.839844 116.984375 C 159.382812 116.742188 158.871094 116.476562 158.574219 115.933594 C 158.285156 115.40625 158.210938 114.628906 158.140625 113.902344 L 158.457031 113.910156 C 158.316406 114.769531 158.175781 115.6875 157.808594 116.214844 C 157.421875 116.765625 156.8125 116.878906 156.28125 116.984375 Z M 156.28125 116.984375 " fill-opacity="1" fill-rule="nonzero"/></g><g clip-path="url(#4e40a64e48)"><path fill="#ffffff" d="M 152.917969 112.058594 C 153.210938 112.003906 153.421875 111.957031 153.542969 111.785156 C 153.679688 111.589844 153.730469 111.230469 153.785156 110.796875 C 153.796875 110.71875 153.863281 110.660156 153.945312 110.660156 C 154.023438 110.660156 154.09375 110.71875 154.101562 110.800781 C 154.144531 111.160156 154.183594 111.476562 154.289062 111.671875 C 154.382812 111.851562 154.539062 111.9375 154.675781 112.003906 C 154.808594 112.070312 154.890625 112.097656 154.972656 112.132812 C 155.042969 112.15625 155.085938 112.226562 155.074219 112.300781 C 155.066406 112.375 155.003906 112.433594 154.929688 112.4375 C 154.691406 112.457031 154.535156 112.476562 154.421875 112.648438 C 154.28125 112.851562 154.191406 113.269531 154.09375 113.742188 C 154.078125 113.824219 154.003906 113.878906 153.921875 113.871094 C 153.839844 113.863281 153.777344 113.792969 153.777344 113.710938 C 153.777344 113.609375 153.777344 113.511719 153.730469 113.300781 C 153.675781 113.074219 153.574219 112.765625 153.4375 112.601562 C 153.3125 112.457031 153.144531 112.417969 152.914062 112.371094 C 152.839844 112.355469 152.789062 112.289062 152.789062 112.214844 C 152.789062 112.136719 152.84375 112.074219 152.917969 112.058594 M 152.976562 112.371094 L 152.980469 112.058594 C 153.195312 112.101562 153.472656 112.15625 153.679688 112.398438 C 153.871094 112.625 153.984375 113 154.039062 113.226562 C 154.09375 113.46875 154.097656 113.59375 154.097656 113.710938 L 153.78125 113.679688 C 153.871094 113.238281 153.972656 112.738281 154.160156 112.46875 C 154.367188 112.160156 154.679688 112.140625 154.902344 112.121094 L 154.859375 112.429688 C 154.773438 112.394531 154.683594 112.363281 154.535156 112.289062 C 154.390625 112.21875 154.152344 112.097656 154.007812 111.820312 C 153.871094 111.5625 153.828125 111.175781 153.785156 110.835938 L 154.101562 110.839844 C 154.050781 111.234375 153.996094 111.695312 153.800781 111.96875 C 153.59375 112.261719 153.242188 112.320312 152.976562 112.371094 Z M 152.976562 112.371094 " fill-opacity="1" fill-rule="nonzero"/></g><g clip-path="url(#c2077d4916)"><path fill="#ffffff" d="M 151.976562 119.589844 C 151.949219 119.988281 151.921875 120.402344 151.808594 120.789062 C 151.695312 121.171875 151.496094 121.53125 151.226562 121.75 C 150.953125 121.96875 150.625 122.03125 150.339844 122.085938 L 150.320312 121.808594 C 150.5625 121.824219 150.835938 121.839844 151.132812 122.027344 C 151.417969 122.214844 151.722656 122.558594 151.882812 122.960938 C 152.042969 123.363281 152.058594 123.820312 152.074219 124.246094 L 151.789062 124.25 C 151.792969 124.019531 151.792969 123.773438 151.890625 123.394531 C 151.988281 123.027344 152.179688 122.507812 152.421875 122.21875 C 152.683594 121.914062 152.992188 121.882812 153.246094 121.855469 L 153.257812 122.136719 C 153.226562 122.136719 153.195312 122.132812 153.164062 122.132812 C 152.96875 122.125 152.746094 122.109375 152.550781 121.992188 C 152.320312 121.855469 152.15625 121.601562 152.027344 121.1875 C 151.898438 120.777344 151.796875 120.183594 151.695312 119.605469 L 151.976562 119.589844 M 151.695312 119.570312 C 151.699219 119.5 151.753906 119.441406 151.828125 119.4375 C 151.898438 119.433594 151.960938 119.484375 151.972656 119.554688 C 152.074219 120.140625 152.175781 120.714844 152.296875 121.105469 C 152.417969 121.492188 152.554688 121.667969 152.695312 121.75 C 152.824219 121.828125 152.980469 121.84375 153.175781 121.851562 C 153.203125 121.851562 153.234375 121.851562 153.265625 121.851562 C 153.339844 121.855469 153.398438 121.914062 153.402344 121.988281 C 153.40625 122.0625 153.351562 122.128906 153.277344 122.136719 C 153.023438 122.164062 152.820312 122.1875 152.640625 122.402344 C 152.441406 122.640625 152.257812 123.109375 152.164062 123.464844 C 152.074219 123.8125 152.074219 124.027344 152.074219 124.25 C 152.074219 124.328125 152.011719 124.390625 151.933594 124.390625 C 151.855469 124.394531 151.792969 124.332031 151.789062 124.257812 C 151.773438 123.820312 151.757812 123.414062 151.617188 123.066406 C 151.480469 122.71875 151.214844 122.417969 150.980469 122.265625 C 150.75 122.121094 150.542969 122.105469 150.304688 122.089844 C 150.230469 122.085938 150.175781 122.027344 150.171875 121.957031 C 150.167969 121.886719 150.214844 121.824219 150.285156 121.808594 C 150.582031 121.75 150.839844 121.699219 151.046875 121.53125 C 151.257812 121.359375 151.433594 121.058594 151.539062 120.707031 C 151.640625 120.359375 151.667969 119.972656 151.695312 119.570312 Z M 151.695312 119.570312 " fill-opacity="1" fill-rule="nonzero"/></g></svg>