<svg xmlns="http://www.w3.org/2000/svg" xmlns:xlink="http://www.w3.org/1999/xlink" width="512" zoomAndPan="magnify" viewBox="0 0 384 383.999986" height="512" preserveAspectRatio="xMidYMid meet" version="1.0"><defs><clipPath id="576dd27578"><path d="M 156 113 L 159.914062 113 L 159.914062 120 L 156 120 Z M 156 113 " clip-rule="nonzero"/></clipPath><clipPath id="d5aaef7233"><path d="M 152 110.660156 L 156 110.660156 L 156 114 L 152 114 Z M 152 110.660156 " clip-rule="nonzero"/></clipPath><clipPath id="aa20f33134"><path d="M 150.164062 119 L 154 119 L 154 124.160156 L 150.164062 124.160156 Z M 150.164062 119 " clip-rule="nonzero"/></clipPath></defs><g clip-path="url(#576dd27578)"><path fill="#ffffff" d="M 156.21875 116.671875 C 156.773438 116.5625 157.246094 116.460938 157.546875 116.03125 C 157.863281 115.578125 158 114.75 158.140625 113.859375 C 158.15625 113.78125 158.222656 113.722656 158.304688 113.726562 C 158.382812 113.730469 158.449219 113.789062 158.457031 113.871094 C 158.53125 114.621094 158.601562 115.324219 158.855469 115.78125 C 159.097656 116.226562 159.515625 116.453125 159.988281 116.703125 C 160.046875 116.734375 160.078125 116.796875 160.070312 116.863281 C 160.0625 116.929688 160.015625 116.980469 159.953125 116.996094 L 159.949219 116.996094 C 159.6875 117.0625 159.46875 117.121094 159.273438 117.320312 C 159.070312 117.53125 158.882812 117.914062 158.71875 118.363281 C 158.558594 118.808594 158.429688 119.296875 158.300781 119.792969 C 158.277344 119.871094 158.207031 119.917969 158.128906 119.910156 C 158.050781 119.902344 157.988281 119.835938 157.988281 119.757812 L 157.988281 119.753906 C 157.972656 119.292969 157.957031 118.855469 157.84375 118.433594 C 157.734375 118.011719 157.527344 117.625 157.253906 117.394531 C 156.980469 117.164062 156.621094 117.078125 156.214844 116.980469 C 156.140625 116.964844 156.089844 116.898438 156.089844 116.824219 C 156.089844 116.75 156.144531 116.683594 156.21875 116.671875 M 156.28125 116.984375 L 156.285156 116.671875 C 156.675781 116.765625 157.117188 116.863281 157.460938 117.148438 C 157.800781 117.4375 158.03125 117.894531 158.152344 118.355469 C 158.273438 118.8125 158.289062 119.289062 158.304688 119.746094 L 157.992188 119.714844 C 158.121094 119.21875 158.253906 118.714844 158.417969 118.253906 C 158.585938 117.800781 158.792969 117.359375 159.046875 117.097656 C 159.3125 116.824219 159.617188 116.753906 159.875 116.6875 L 159.839844 116.984375 C 159.382812 116.742188 158.871094 116.476562 158.574219 115.933594 C 158.285156 115.40625 158.210938 114.628906 158.140625 113.902344 L 158.457031 113.910156 C 158.316406 114.769531 158.175781 115.6875 157.808594 116.214844 C 157.421875 116.765625 156.8125 116.878906 156.28125 116.984375 Z M 156.28125 116.984375 " fill-opacity="1" fill-rule="nonzero"/></g><g clip-path="url(#d5aaef7233)"><path fill="#ffffff" d="M 152.917969 112.058594 C 153.210938 112.003906 153.421875 111.957031 153.542969 111.785156 C 153.679688 111.589844 153.730469 111.230469 153.785156 110.796875 C 153.796875 110.71875 153.863281 110.660156 153.945312 110.660156 C 154.023438 110.660156 154.09375 110.71875 154.101562 110.800781 C 154.144531 111.160156 154.183594 111.476562 154.289062 111.671875 C 154.382812 111.851562 154.539062 111.9375 154.675781 112.003906 C 154.808594 112.070312 154.890625 112.097656 154.972656 112.132812 C 155.042969 112.15625 155.085938 112.226562 155.074219 112.300781 C 155.066406 112.375 155.003906 112.433594 154.929688 112.4375 C 154.691406 112.457031 154.535156 112.476562 154.421875 112.648438 C 154.28125 112.851562 154.191406 113.269531 154.09375 113.742188 C 154.078125 113.824219 154.003906 113.878906 153.921875 113.871094 C 153.839844 113.863281 153.777344 113.792969 153.777344 113.710938 C 153.777344 113.609375 153.777344 113.511719 153.730469 113.300781 C 153.675781 113.074219 153.574219 112.765625 153.4375 112.601562 C 153.3125 112.457031 153.144531 112.417969 152.914062 112.371094 C 152.839844 112.355469 152.789062 112.289062 152.789062 112.214844 C 152.789062 112.136719 152.84375 112.074219 152.917969 112.058594 M 152.976562 112.371094 L 152.980469 112.058594 C 153.195312 112.101562 153.472656 112.15625 153.679688 112.398438 C 153.871094 112.625 153.984375 113 154.039062 113.226562 C 154.09375 113.46875 154.097656 113.59375 154.097656 113.710938 L 153.78125 113.679688 C 153.871094 113.238281 153.972656 112.738281 154.160156 112.46875 C 154.367188 112.160156 154.679688 112.140625 154.902344 112.121094 L 154.859375 112.429688 C 154.773438 112.394531 154.683594 112.363281 154.535156 112.289062 C 154.390625 112.21875 154.152344 112.097656 154.007812 111.820312 C 153.871094 111.5625 153.828125 111.175781 153.785156 110.835938 L 154.101562 110.839844 C 154.050781 111.234375 153.996094 111.695312 153.800781 111.96875 C 153.59375 112.261719 153.242188 112.320312 152.976562 112.371094 Z M 152.976562 112.371094 " fill-opacity="1" fill-rule="nonzero"/></g><g clip-path="url(#aa20f33134)"><path fill="#ffffff" d="M 151.976562 119.589844 C 151.949219 119.988281 151.921875 120.402344 151.808594 120.789062 C 151.695312 121.171875 151.496094 121.53125 151.226562 121.75 C 150.953125 121.96875 150.625 122.03125 150.339844 122.085938 L 150.320312 121.808594 C 150.5625 121.824219 150.835938 121.839844 151.132812 122.027344 C 151.417969 122.214844 151.722656 122.558594 151.882812 122.960938 C 152.042969 123.363281 152.058594 123.820312 152.074219 124.246094 L 151.789062 124.25 C 151.792969 124.019531 151.792969 123.773438 151.890625 123.394531 C 151.988281 123.027344 152.179688 122.507812 152.421875 122.21875 C 152.683594 121.914062 152.992188 121.882812 153.246094 121.855469 L 153.257812 122.136719 C 153.226562 122.136719 153.195312 122.132812 153.164062 122.132812 C 152.96875 122.125 152.746094 122.109375 152.550781 121.992188 C 152.320312 121.855469 152.15625 121.601562 152.027344 121.1875 C 151.898438 120.777344 151.796875 120.183594 151.695312 119.605469 L 151.976562 119.589844 M 151.695312 119.570312 C 151.699219 119.5 151.753906 119.441406 151.828125 119.4375 C 151.898438 119.433594 151.960938 119.484375 151.972656 119.554688 C 152.074219 120.140625 152.175781 120.714844 152.296875 121.105469 C 152.417969 121.492188 152.554688 121.667969 152.695312 121.75 C 152.824219 121.828125 152.980469 121.84375 153.175781 121.851562 C 153.203125 121.851562 153.234375 121.851562 153.265625 121.851562 C 153.339844 121.855469 153.398438 121.914062 153.402344 121.988281 C 153.40625 122.0625 153.351562 122.128906 153.277344 122.136719 C 153.023438 122.164062 152.820312 122.1875 152.640625 122.402344 C 152.441406 122.640625 152.257812 123.109375 152.164062 123.464844 C 152.074219 123.8125 152.074219 124.027344 152.074219 124.25 C 152.074219 124.328125 152.011719 124.390625 151.933594 124.390625 C 151.855469 124.394531 151.792969 124.332031 151.789062 124.257812 C 151.773438 123.820312 151.757812 123.414062 151.617188 123.066406 C 151.480469 122.71875 151.214844 122.417969 150.980469 122.265625 C 150.75 122.121094 150.542969 122.105469 150.304688 122.089844 C 150.230469 122.085938 150.175781 122.027344 150.171875 121.957031 C 150.167969 121.886719 150.214844 121.824219 150.285156 121.808594 C 150.582031 121.75 150.839844 121.699219 151.046875 121.53125 C 151.257812 121.359375 151.433594 121.058594 151.539062 120.707031 C 151.640625 120.359375 151.667969 119.972656 151.695312 119.570312 Z M 151.695312 119.570312 " fill-opacity="1" fill-rule="nonzero"/></g><path fill="#ffffff" d="M 189.488281 78.546875 C 187.347656 78.605469 185.214844 78.742188 183.082031 78.960938 C 180.953125 79.175781 178.835938 79.472656 176.730469 79.84375 C 174.621094 80.21875 172.53125 80.667969 170.457031 81.195312 C 168.382812 81.71875 166.328125 82.324219 164.300781 83 C 162.269531 83.679688 160.265625 84.429688 158.292969 85.253906 C 156.316406 86.078125 154.375 86.976562 152.46875 87.945312 C 150.558594 88.914062 148.6875 89.949219 146.855469 91.054688 C 145.023438 92.160156 143.234375 93.332031 141.488281 94.570312 C 139.742188 95.808594 138.042969 97.109375 136.394531 98.46875 C 134.742188 99.832031 133.144531 101.253906 131.597656 102.734375 C 130.054688 104.214844 128.5625 105.75 127.132812 107.339844 C 125.699219 108.929688 124.324219 110.570312 123.011719 112.261719 C 121.703125 113.949219 120.453125 115.6875 119.269531 117.46875 C 118.085938 119.253906 116.96875 121.078125 115.917969 122.941406 C 114.867188 124.804688 113.886719 126.707031 112.976562 128.644531 C 112.066406 130.582031 111.230469 132.550781 110.464844 134.546875 C 109.699219 136.546875 109.007812 138.570312 108.394531 140.621094 C 107.777344 142.671875 107.238281 144.738281 106.773438 146.828125 C 106.308594 148.917969 105.921875 151.023438 105.613281 153.140625 C 105.304688 155.257812 105.074219 157.382812 104.921875 159.519531 C 104.769531 161.652344 104.695312 163.789062 104.699219 165.929688 C 104.707031 168.070312 104.789062 170.207031 104.949219 172.34375 C 105.113281 174.476562 105.355469 176.601562 105.671875 178.71875 C 105.992188 180.832031 106.386719 182.933594 106.859375 185.023438 C 107.332031 187.109375 107.882812 189.175781 108.507812 191.222656 C 109.132812 193.269531 109.832031 195.292969 110.609375 197.285156 C 111.382812 199.28125 112.230469 201.246094 113.148438 203.179688 C 114.066406 205.109375 115.054688 207.007812 116.113281 208.867188 C 117.171875 210.726562 118.296875 212.546875 119.488281 214.324219 C 120.683594 216.101562 121.9375 217.832031 123.257812 219.515625 C 124.578125 221.203125 125.957031 222.835938 127.398438 224.417969 C 128.835938 226.003906 130.335938 227.53125 131.886719 229.003906 C 141.417969 237.675781 150.117188 247.113281 157.992188 257.3125 C 165.863281 267.515625 172.78125 278.324219 178.753906 289.746094 L 184.1875 300.621094 C 184.550781 301.347656 185.003906 302.007812 185.550781 302.609375 C 186.097656 303.207031 186.71875 303.71875 187.40625 304.148438 C 188.097656 304.574219 188.832031 304.898438 189.613281 305.121094 C 190.394531 305.34375 191.1875 305.453125 192 305.453125 C 192.8125 305.453125 193.605469 305.34375 194.386719 305.121094 C 195.167969 304.898438 195.902344 304.574219 196.59375 304.148438 C 197.28125 303.71875 197.902344 303.207031 198.449219 302.609375 C 198.996094 302.007812 199.449219 301.347656 199.8125 300.621094 L 203.398438 293.4375 C 208.914062 281.722656 215.527344 270.664062 223.242188 260.265625 C 230.953125 249.863281 239.609375 240.320312 249.214844 231.640625 C 250.351562 230.652344 251.460938 229.640625 252.546875 228.59375 C 253.628906 227.550781 254.6875 226.480469 255.714844 225.382812 C 256.742188 224.285156 257.742188 223.160156 258.714844 222.011719 C 259.683594 220.863281 260.625 219.6875 261.535156 218.488281 C 262.441406 217.289062 263.320312 216.070312 264.167969 214.824219 C 265.015625 213.582031 265.828125 212.316406 266.609375 211.03125 C 267.390625 209.746094 268.136719 208.441406 268.851562 207.117188 C 269.5625 205.789062 270.242188 204.449219 270.886719 203.089844 C 271.53125 201.730469 272.136719 200.351562 272.710938 198.960938 C 273.28125 197.570312 273.820312 196.164062 274.320312 194.746094 C 274.820312 193.328125 275.28125 191.898438 275.707031 190.453125 C 276.132812 189.011719 276.523438 187.558594 276.871094 186.09375 C 277.222656 184.632812 277.535156 183.160156 277.808594 181.679688 C 278.085938 180.203125 278.320312 178.714844 278.519531 177.226562 C 278.714844 175.734375 278.875 174.238281 278.996094 172.738281 C 279.113281 171.238281 279.195312 169.738281 279.238281 168.234375 C 279.28125 166.730469 279.285156 165.226562 279.25 163.722656 C 279.214844 162.214844 279.140625 160.714844 279.027344 159.214844 C 278.914062 157.714844 278.761719 156.21875 278.570312 154.726562 C 278.378906 153.234375 278.152344 151.746094 277.882812 150.265625 C 277.617188 148.785156 277.308594 147.3125 276.964844 145.847656 C 276.621094 144.382812 276.242188 142.929688 275.820312 141.484375 C 275.402344 140.039062 274.945312 138.605469 274.453125 137.183594 C 273.960938 135.761719 273.429688 134.355469 272.863281 132.960938 C 272.296875 131.566406 271.695312 130.1875 271.058594 128.828125 C 270.421875 127.464844 269.75 126.117188 269.039062 124.789062 C 268.332031 123.460938 267.59375 122.152344 266.816406 120.863281 C 266.042969 119.574219 265.234375 118.304688 264.394531 117.058594 C 263.554688 115.808594 262.683594 114.585938 261.777344 113.382812 C 260.875 112.179688 259.9375 111 258.972656 109.847656 C 258.007812 108.691406 257.015625 107.5625 255.992188 106.460938 C 254.96875 105.359375 253.917969 104.285156 252.835938 103.234375 C 250.757812 101.191406 248.582031 99.257812 246.308594 97.4375 C 244.035156 95.613281 241.671875 93.910156 239.226562 92.328125 C 236.777344 90.746094 234.257812 89.289062 231.664062 87.960938 C 229.070312 86.636719 226.414062 85.441406 223.699219 84.382812 C 220.980469 83.324219 218.21875 82.40625 215.410156 81.628906 C 212.601562 80.851562 209.761719 80.214844 206.890625 79.726562 C 204.015625 79.234375 201.125 78.890625 198.21875 78.695312 C 195.308594 78.496094 192.398438 78.449219 189.488281 78.546875 Z M 237.773438 218.445312 C 228.441406 226.820312 219.933594 235.960938 212.25 245.871094 C 204.566406 255.78125 197.832031 266.296875 192.042969 277.421875 C 185.726562 266.007812 178.527344 255.175781 170.457031 244.929688 C 162.382812 234.679688 153.539062 225.148438 143.921875 216.332031 C 142.695312 215.144531 141.519531 213.917969 140.382812 212.644531 C 139.25 211.375 138.160156 210.0625 137.121094 208.714844 C 136.082031 207.363281 135.09375 205.976562 134.15625 204.550781 C 133.21875 203.128906 132.335938 201.675781 131.503906 200.1875 C 130.671875 198.699219 129.894531 197.183594 129.175781 195.640625 C 128.453125 194.09375 127.789062 192.527344 127.183594 190.933594 C 126.578125 189.34375 126.03125 187.730469 125.539062 186.097656 C 125.050781 184.464844 124.625 182.816406 124.253906 181.152344 C 123.886719 179.488281 123.578125 177.8125 123.332031 176.128906 C 123.085938 174.441406 122.902344 172.75 122.777344 171.046875 C 122.65625 169.347656 122.597656 167.648438 122.597656 165.941406 C 122.597656 164.238281 122.664062 162.535156 122.789062 160.835938 C 122.914062 159.136719 123.101562 157.445312 123.351562 155.757812 C 123.597656 154.074219 123.910156 152.398438 124.28125 150.734375 C 124.652344 149.074219 125.082031 147.425781 125.574219 145.792969 C 126.066406 144.160156 126.617188 142.550781 127.226562 140.957031 C 127.835938 139.367188 128.503906 137.800781 129.226562 136.257812 C 129.949219 134.714844 130.726562 133.199219 131.5625 131.714844 C 132.398438 130.226562 133.285156 128.773438 134.222656 127.351562 C 135.164062 125.933594 136.15625 124.546875 137.195312 123.199219 C 138.238281 121.847656 139.328125 120.539062 140.464844 119.269531 C 141.601562 118 142.78125 116.773438 144.007812 115.589844 C 145.234375 114.40625 146.503906 113.269531 147.8125 112.179688 C 149.121094 111.089844 150.46875 110.046875 151.855469 109.054688 C 153.238281 108.0625 154.660156 107.121094 156.113281 106.234375 C 157.566406 105.34375 159.050781 104.507812 160.566406 103.730469 C 162.082031 102.949219 163.621094 102.222656 165.191406 101.554688 C 166.757812 100.886719 168.347656 100.277344 169.960938 99.726562 C 171.570312 99.175781 173.203125 98.679688 174.851562 98.25 C 176.5 97.816406 178.160156 97.441406 179.835938 97.132812 C 181.511719 96.820312 183.195312 96.570312 184.890625 96.378906 C 186.582031 96.191406 188.28125 96.066406 189.984375 96 C 190.660156 96 191.332031 96 192 96 C 193.765625 96 195.527344 96.070312 197.285156 96.207031 C 199.042969 96.339844 200.792969 96.542969 202.539062 96.808594 C 204.28125 97.078125 206.011719 97.410156 207.730469 97.8125 C 209.449219 98.210938 211.148438 98.671875 212.832031 99.203125 C 214.515625 99.730469 216.175781 100.320312 217.816406 100.972656 C 219.453125 101.628906 221.0625 102.34375 222.648438 103.121094 C 224.234375 103.894531 225.785156 104.730469 227.304688 105.625 C 228.828125 106.519531 230.3125 107.46875 231.761719 108.472656 C 233.210938 109.480469 234.617188 110.539062 235.988281 111.652344 C 237.355469 112.765625 238.679688 113.929688 239.960938 115.144531 C 241.238281 116.355469 242.472656 117.617188 243.65625 118.921875 C 244.84375 120.230469 245.976562 121.578125 247.058594 122.972656 C 248.140625 124.367188 249.167969 125.796875 250.144531 127.269531 C 251.117188 128.738281 252.035156 130.242188 252.894531 131.785156 C 253.753906 133.324219 254.554688 134.894531 255.296875 136.496094 C 256.035156 138.097656 256.714844 139.722656 257.332031 141.375 C 257.949219 143.027344 258.503906 144.703125 258.996094 146.394531 C 259.484375 148.089844 259.910156 149.800781 260.273438 151.527344 C 260.632812 153.253906 260.929688 154.992188 261.160156 156.742188 C 261.386719 158.488281 261.550781 160.246094 261.648438 162.007812 C 261.742188 163.769531 261.773438 165.53125 261.734375 167.292969 C 261.699219 169.058594 261.59375 170.816406 261.421875 172.574219 C 261.253906 174.328125 261.015625 176.074219 260.710938 177.8125 C 260.410156 179.550781 260.042969 181.273438 259.609375 182.984375 C 259.175781 184.695312 258.675781 186.386719 258.113281 188.058594 C 257.550781 189.730469 256.929688 191.378906 256.242188 193.003906 C 255.554688 194.628906 254.808594 196.222656 254 197.792969 C 253.191406 199.359375 252.324219 200.894531 251.402344 202.398438 C 250.476562 203.902344 249.496094 205.367188 248.460938 206.792969 C 247.425781 208.222656 246.339844 209.609375 245.199219 210.957031 C 244.058594 212.300781 242.867188 213.601562 241.628906 214.859375 C 240.390625 216.113281 239.105469 217.320312 237.773438 218.480469 Z M 237.773438 218.445312 " fill-opacity="1" fill-rule="nonzero"/><path fill="#ffffff" d="M 192 130.910156 C 190.855469 130.910156 189.714844 130.964844 188.578125 131.078125 C 187.441406 131.1875 186.3125 131.355469 185.191406 131.578125 C 184.066406 131.804688 182.960938 132.082031 181.867188 132.414062 C 180.773438 132.742188 179.695312 133.128906 178.640625 133.566406 C 177.585938 134.003906 176.550781 134.492188 175.542969 135.03125 C 174.535156 135.570312 173.554688 136.15625 172.605469 136.792969 C 171.65625 137.425781 170.738281 138.109375 169.855469 138.832031 C 168.96875 139.558594 168.125 140.324219 167.316406 141.132812 C 166.507812 141.941406 165.738281 142.789062 165.015625 143.671875 C 164.289062 144.554688 163.609375 145.472656 162.972656 146.421875 C 162.339844 147.375 161.75 148.355469 161.214844 149.363281 C 160.675781 150.371094 160.1875 151.402344 159.75 152.460938 C 159.3125 153.515625 158.925781 154.589844 158.59375 155.683594 C 158.261719 156.777344 157.984375 157.886719 157.761719 159.007812 C 157.539062 160.128906 157.371094 161.257812 157.257812 162.398438 C 157.148438 163.535156 157.089844 164.675781 157.089844 165.816406 C 157.089844 166.960938 157.148438 168.101562 157.257812 169.238281 C 157.371094 170.378906 157.539062 171.507812 157.761719 172.628906 C 157.984375 173.75 158.261719 174.859375 158.59375 175.953125 C 158.925781 177.046875 159.3125 178.121094 159.75 179.175781 C 160.1875 180.234375 160.675781 181.265625 161.210938 182.273438 C 161.75 183.28125 162.339844 184.261719 162.972656 185.210938 C 163.609375 186.164062 164.289062 187.082031 165.015625 187.964844 C 165.738281 188.847656 166.507812 189.695312 167.316406 190.503906 C 168.125 191.3125 168.96875 192.078125 169.855469 192.804688 C 170.738281 193.527344 171.65625 194.207031 172.605469 194.84375 C 173.554688 195.480469 174.535156 196.066406 175.542969 196.605469 C 176.550781 197.144531 177.585938 197.632812 178.640625 198.070312 C 179.695312 198.507812 180.773438 198.890625 181.867188 199.222656 C 182.960938 199.554688 184.066406 199.832031 185.191406 200.054688 C 186.3125 200.28125 187.441406 200.445312 188.578125 200.558594 C 189.714844 200.671875 190.855469 200.726562 192 200.726562 C 193.144531 200.726562 194.285156 200.671875 195.421875 200.558594 C 196.558594 200.445312 197.6875 200.28125 198.808594 200.054688 C 199.933594 199.832031 201.039062 199.554688 202.132812 199.222656 C 203.226562 198.890625 204.304688 198.507812 205.359375 198.070312 C 206.414062 197.632812 207.449219 197.144531 208.457031 196.605469 C 209.464844 196.066406 210.445312 195.480469 211.394531 194.84375 C 212.34375 194.207031 213.261719 193.527344 214.144531 192.804688 C 215.03125 192.078125 215.875 191.3125 216.683594 190.503906 C 217.492188 189.695312 218.257812 188.847656 218.984375 187.964844 C 219.710938 187.082031 220.390625 186.164062 221.027344 185.210938 C 221.660156 184.261719 222.25 183.28125 222.785156 182.273438 C 223.324219 181.265625 223.8125 180.234375 224.25 179.175781 C 224.6875 178.121094 225.074219 177.046875 225.40625 175.953125 C 225.738281 174.859375 226.015625 173.75 226.238281 172.628906 C 226.460938 171.507812 226.628906 170.378906 226.742188 169.238281 C 226.851562 168.101562 226.910156 166.960938 226.910156 165.816406 C 226.910156 164.675781 226.851562 163.535156 226.742188 162.398438 C 226.628906 161.257812 226.460938 160.128906 226.238281 159.007812 C 226.015625 157.886719 225.738281 156.777344 225.40625 155.683594 C 225.074219 154.589844 224.6875 153.515625 224.25 152.460938 C 223.8125 151.402344 223.324219 150.371094 222.785156 149.363281 C 222.25 148.355469 221.660156 147.375 221.027344 146.421875 C 220.390625 145.472656 219.710938 144.554688 218.984375 143.671875 C 218.257812 142.789062 217.492188 141.941406 216.683594 141.132812 C 215.875 140.324219 215.03125 139.558594 214.144531 138.832031 C 213.261719 138.109375 212.34375 137.425781 211.394531 136.792969 C 210.445312 136.15625 209.464844 135.570312 208.457031 135.03125 C 207.449219 134.492188 206.414062 134.003906 205.359375 133.566406 C 204.304688 133.128906 203.226562 132.742188 202.132812 132.414062 C 201.039062 132.082031 199.933594 131.804688 198.808594 131.578125 C 197.6875 131.355469 196.558594 131.1875 195.421875 131.078125 C 194.285156 130.964844 193.144531 130.910156 192 130.910156 Z M 192 183.273438 C 191.429688 183.273438 190.859375 183.246094 190.289062 183.1875 C 189.71875 183.132812 189.15625 183.050781 188.59375 182.9375 C 188.035156 182.824219 187.480469 182.6875 186.933594 182.519531 C 186.386719 182.355469 185.847656 182.164062 185.320312 181.945312 C 184.792969 181.726562 184.277344 181.480469 183.773438 181.210938 C 183.269531 180.941406 182.777344 180.648438 182.304688 180.332031 C 181.828125 180.011719 181.367188 179.671875 180.925781 179.3125 C 180.484375 178.949219 180.0625 178.566406 179.65625 178.160156 C 179.253906 177.757812 178.871094 177.332031 178.507812 176.890625 C 178.144531 176.449219 177.804688 175.992188 177.488281 175.515625 C 177.167969 175.039062 176.875 174.550781 176.605469 174.046875 C 176.335938 173.542969 176.09375 173.027344 175.875 172.496094 C 175.65625 171.96875 175.464844 171.433594 175.296875 170.886719 C 175.132812 170.339844 174.992188 169.785156 174.878906 169.222656 C 174.769531 168.664062 174.683594 168.097656 174.628906 167.527344 C 174.574219 166.960938 174.546875 166.390625 174.546875 165.816406 C 174.546875 165.246094 174.574219 164.675781 174.628906 164.105469 C 174.683594 163.539062 174.769531 162.972656 174.878906 162.414062 C 174.992188 161.851562 175.132812 161.296875 175.296875 160.75 C 175.464844 160.203125 175.65625 159.667969 175.875 159.136719 C 176.09375 158.609375 176.335938 158.09375 176.605469 157.589844 C 176.875 157.085938 177.167969 156.597656 177.488281 156.121094 C 177.804688 155.644531 178.144531 155.1875 178.507812 154.746094 C 178.871094 154.304688 179.253906 153.878906 179.65625 153.476562 C 180.0625 153.070312 180.484375 152.6875 180.925781 152.324219 C 181.367188 151.964844 181.828125 151.621094 182.304688 151.304688 C 182.777344 150.988281 183.269531 150.695312 183.773438 150.425781 C 184.277344 150.15625 184.792969 149.910156 185.320312 149.691406 C 185.847656 149.472656 186.386719 149.28125 186.933594 149.113281 C 187.480469 148.949219 188.035156 148.808594 188.59375 148.699219 C 189.15625 148.585938 189.71875 148.503906 190.289062 148.449219 C 190.859375 148.390625 191.429688 148.363281 192 148.363281 C 192.570312 148.363281 193.140625 148.390625 193.710938 148.449219 C 194.28125 148.503906 194.84375 148.585938 195.40625 148.699219 C 195.964844 148.808594 196.519531 148.949219 197.066406 149.113281 C 197.613281 149.28125 198.152344 149.472656 198.679688 149.691406 C 199.207031 149.910156 199.722656 150.15625 200.226562 150.425781 C 200.730469 150.695312 201.222656 150.988281 201.695312 151.304688 C 202.171875 151.621094 202.632812 151.964844 203.074219 152.324219 C 203.515625 152.6875 203.9375 153.070312 204.34375 153.476562 C 204.746094 153.878906 205.128906 154.304688 205.492188 154.746094 C 205.855469 155.1875 206.195312 155.644531 206.511719 156.121094 C 206.832031 156.597656 207.125 157.085938 207.394531 157.589844 C 207.664062 158.09375 207.90625 158.609375 208.125 159.136719 C 208.34375 159.667969 208.535156 160.203125 208.703125 160.75 C 208.867188 161.296875 209.007812 161.851562 209.117188 162.414062 C 209.230469 162.972656 209.3125 163.539062 209.371094 164.105469 C 209.425781 164.675781 209.453125 165.246094 209.453125 165.816406 C 209.453125 166.390625 209.425781 166.960938 209.371094 167.527344 C 209.316406 168.097656 209.230469 168.664062 209.117188 169.222656 C 209.007812 169.785156 208.867188 170.339844 208.703125 170.886719 C 208.535156 171.433594 208.34375 171.96875 208.125 172.496094 C 207.90625 173.027344 207.664062 173.542969 207.394531 174.046875 C 207.125 174.550781 206.832031 175.039062 206.511719 175.515625 C 206.195312 175.992188 205.855469 176.449219 205.492188 176.890625 C 205.128906 177.332031 204.746094 177.757812 204.34375 178.160156 C 203.9375 178.566406 203.515625 178.949219 203.074219 179.3125 C 202.632812 179.671875 202.171875 180.011719 201.695312 180.332031 C 201.222656 180.648438 200.730469 180.941406 200.226562 181.210938 C 199.722656 181.480469 199.207031 181.726562 198.679688 181.945312 C 198.152344 182.164062 197.613281 182.355469 197.066406 182.519531 C 196.519531 182.6875 195.964844 182.824219 195.40625 182.9375 C 194.84375 183.050781 194.28125 183.132812 193.710938 183.1875 C 193.140625 183.246094 192.570312 183.273438 192 183.273438 Z M 192 183.273438 " fill-opacity="1" fill-rule="nonzero"/><path fill="#ffffff" d="M 192 0 C 188.859375 0 185.71875 0.078125 182.578125 0.230469 C 179.441406 0.386719 176.308594 0.617188 173.179688 0.925781 C 170.054688 1.234375 166.9375 1.617188 163.828125 2.078125 C 160.71875 2.539062 157.625 3.078125 154.542969 3.6875 C 151.460938 4.300781 148.394531 4.992188 145.347656 5.753906 C 142.300781 6.515625 139.273438 7.355469 136.265625 8.265625 C 133.257812 9.179688 130.277344 10.164062 127.316406 11.222656 C 124.359375 12.28125 121.429688 13.414062 118.523438 14.613281 C 115.621094 15.816406 112.75 17.089844 109.910156 18.433594 C 107.070312 19.777344 104.261719 21.191406 101.492188 22.671875 C 98.71875 24.152344 95.988281 25.699219 93.292969 27.316406 C 90.597656 28.929688 87.941406 30.613281 85.332031 32.359375 C 82.71875 34.105469 80.148438 35.914062 77.625 37.785156 C 75.101562 39.65625 72.625 41.589844 70.195312 43.582031 C 67.765625 45.574219 65.390625 47.628906 63.0625 49.738281 C 60.734375 51.847656 58.457031 54.011719 56.234375 56.234375 C 54.011719 58.457031 51.847656 60.734375 49.738281 63.0625 C 47.628906 65.390625 45.574219 67.765625 43.582031 70.195312 C 41.589844 72.625 39.65625 75.101562 37.785156 77.625 C 35.914062 80.148438 34.105469 82.71875 32.359375 85.332031 C 30.613281 87.941406 28.929688 90.597656 27.316406 93.292969 C 25.699219 95.988281 24.152344 98.71875 22.671875 101.492188 C 21.191406 104.261719 19.777344 107.070312 18.433594 109.910156 C 17.089844 112.75 15.816406 115.621094 14.613281 118.523438 C 13.414062 121.429688 12.28125 124.359375 11.222656 127.316406 C 10.164062 130.277344 9.179688 133.257812 8.265625 136.265625 C 7.355469 139.273438 6.515625 142.300781 5.753906 145.347656 C 4.992188 148.394531 4.300781 151.460938 3.6875 154.542969 C 3.078125 157.625 2.539062 160.71875 2.078125 163.828125 C 1.617188 166.9375 1.234375 170.054688 0.925781 173.179688 C 0.617188 176.308594 0.386719 179.441406 0.230469 182.578125 C 0.078125 185.71875 0 188.859375 0 192 C 0 195.140625 0.078125 198.28125 0.230469 201.421875 C 0.386719 204.558594 0.617188 207.691406 0.925781 210.820312 C 1.234375 213.945312 1.617188 217.0625 2.078125 220.171875 C 2.539062 223.28125 3.078125 226.375 3.6875 229.457031 C 4.300781 232.539062 4.992188 235.605469 5.753906 238.652344 C 6.515625 241.699219 7.355469 244.726562 8.265625 247.734375 C 9.179688 250.742188 10.164062 253.722656 11.222656 256.683594 C 12.28125 259.640625 13.414062 262.570312 14.613281 265.476562 C 15.816406 268.378906 17.089844 271.25 18.433594 274.089844 C 19.777344 276.929688 21.191406 279.738281 22.671875 282.507812 C 24.152344 285.28125 25.699219 288.011719 27.316406 290.707031 C 28.929688 293.402344 30.613281 296.058594 32.359375 298.667969 C 34.105469 301.28125 35.914062 303.851562 37.785156 306.375 C 39.65625 308.898438 41.589844 311.375 43.582031 313.804688 C 45.574219 316.234375 47.628906 318.609375 49.738281 320.9375 C 51.847656 323.265625 54.011719 325.542969 56.234375 327.765625 C 58.457031 329.988281 60.734375 332.152344 63.0625 334.261719 C 65.390625 336.371094 67.765625 338.425781 70.195312 340.417969 C 72.625 342.410156 75.101562 344.34375 77.625 346.214844 C 80.148438 348.085938 82.71875 349.894531 85.332031 351.640625 C 87.941406 353.386719 90.597656 355.070312 93.292969 356.683594 C 95.988281 358.300781 98.71875 359.847656 101.492188 361.328125 C 104.261719 362.808594 107.070312 364.222656 109.910156 365.566406 C 112.75 366.910156 115.621094 368.183594 118.523438 369.386719 C 121.429688 370.585938 124.359375 371.71875 127.316406 372.777344 C 130.277344 373.835938 133.257812 374.820312 136.265625 375.734375 C 139.273438 376.644531 142.300781 377.484375 145.347656 378.246094 C 148.394531 379.007812 151.460938 379.699219 154.542969 380.3125 C 157.625 380.921875 160.71875 381.460938 163.828125 381.921875 C 166.9375 382.382812 170.054688 382.765625 173.179688 383.074219 C 176.308594 383.382812 179.441406 383.613281 182.578125 383.769531 C 185.71875 383.921875 188.859375 384 192 384 C 195.140625 384 198.28125 383.921875 201.421875 383.769531 C 204.558594 383.613281 207.691406 383.382812 210.820312 383.074219 C 213.945312 382.765625 217.0625 382.382812 220.171875 381.921875 C 223.28125 381.460938 226.375 380.921875 229.457031 380.3125 C 232.539062 379.699219 235.605469 379.007812 238.652344 378.246094 C 241.699219 377.484375 244.726562 376.644531 247.734375 375.734375 C 250.742188 374.820312 253.722656 373.835938 256.683594 372.777344 C 259.640625 371.71875 262.570312 370.585938 265.476562 369.386719 C 268.378906 368.183594 271.25 366.910156 274.089844 365.566406 C 276.929688 364.222656 279.738281 362.808594 282.507812 361.328125 C 285.28125 359.847656 288.011719 358.300781 290.707031 356.683594 C 293.402344 355.070312 296.058594 353.386719 298.667969 351.640625 C 301.28125 349.894531 303.851562 348.085938 306.375 346.214844 C 308.898438 344.34375 311.375 342.410156 313.804688 340.417969 C 316.234375 338.425781 318.609375 336.371094 320.9375 334.261719 C 323.265625 332.152344 325.542969 329.988281 327.765625 327.765625 C 329.988281 325.542969 332.152344 323.265625 334.261719 320.9375 C 336.371094 318.609375 338.425781 316.234375 340.417969 313.804688 C 342.410156 311.375 344.34375 308.898438 346.214844 306.375 C 348.085938 303.851562 349.894531 301.28125 351.640625 298.667969 C 353.386719 296.058594 355.070312 293.402344 356.683594 290.707031 C 358.300781 288.011719 359.847656 285.28125 361.328125 282.507812 C 362.808594 279.738281 364.222656 276.929688 365.566406 274.089844 C 366.910156 271.25 368.183594 268.378906 369.386719 265.476562 C 370.585938 262.570312 371.71875 259.640625 372.777344 256.683594 C 373.835938 253.722656 374.820312 250.742188 375.734375 247.734375 C 376.644531 244.726562 377.484375 241.699219 378.246094 238.652344 C 379.007812 235.605469 379.699219 232.539062 380.3125 229.457031 C 380.921875 226.375 381.460938 223.28125 381.921875 220.171875 C 382.382812 217.0625 382.765625 213.945312 383.074219 210.820312 C 383.382812 207.691406 383.613281 204.558594 383.769531 201.421875 C 383.921875 198.28125 384 195.140625 384 192 C 383.996094 188.859375 383.914062 185.71875 383.757812 182.582031 C 383.601562 179.445312 383.367188 176.3125 383.054688 173.1875 C 382.746094 170.0625 382.355469 166.945312 381.894531 163.839844 C 381.429688 160.730469 380.890625 157.636719 380.273438 154.558594 C 379.660156 151.476562 378.96875 148.414062 378.203125 145.367188 C 377.4375 142.320312 376.597656 139.296875 375.683594 136.289062 C 374.769531 133.285156 373.78125 130.304688 372.722656 127.347656 C 371.664062 124.390625 370.53125 121.460938 369.328125 118.558594 C 368.121094 115.65625 366.847656 112.785156 365.503906 109.949219 C 364.160156 107.109375 362.746094 104.304688 361.265625 101.535156 C 359.78125 98.765625 358.234375 96.035156 356.617188 93.339844 C 355.003906 90.644531 353.320312 87.992188 351.574219 85.382812 C 349.828125 82.769531 348.019531 80.203125 346.148438 77.679688 C 344.277344 75.160156 342.34375 72.683594 340.351562 70.253906 C 338.359375 67.828125 336.308594 65.449219 334.195312 63.121094 C 332.085938 60.792969 329.921875 58.519531 327.699219 56.300781 C 325.480469 54.078125 323.207031 51.914062 320.878906 49.804688 C 318.550781 47.691406 316.171875 45.640625 313.746094 43.648438 C 311.316406 41.65625 308.839844 39.722656 306.320312 37.851562 C 303.796875 35.980469 301.230469 34.171875 298.617188 32.425781 C 296.007812 30.679688 293.355469 28.996094 290.660156 27.382812 C 287.964844 25.765625 285.234375 24.21875 282.464844 22.734375 C 279.695312 21.253906 276.890625 19.839844 274.050781 18.496094 C 271.214844 17.152344 268.34375 15.878906 265.441406 14.671875 C 262.539062 13.46875 259.609375 12.335938 256.652344 11.277344 C 253.695312 10.21875 250.714844 9.230469 247.710938 8.316406 C 244.703125 7.402344 241.679688 6.5625 238.632812 5.796875 C 235.585938 5.03125 232.523438 4.339844 229.441406 3.726562 C 226.363281 3.109375 223.269531 2.570312 220.160156 2.105469 C 217.054688 1.644531 213.9375 1.253906 210.8125 0.945312 C 207.6875 0.632812 204.554688 0.398438 201.417969 0.242188 C 198.28125 0.0859375 195.140625 0.00390625 192 0 Z M 192 366.546875 C 189.144531 366.546875 186.289062 366.476562 183.433594 366.335938 C 180.582031 366.195312 177.734375 365.984375 174.890625 365.703125 C 172.046875 365.425781 169.214844 365.074219 166.390625 364.65625 C 163.5625 364.238281 160.75 363.75 157.949219 363.191406 C 155.144531 362.632812 152.359375 362.007812 149.589844 361.316406 C 146.816406 360.621094 144.066406 359.859375 141.332031 359.03125 C 138.597656 358.199219 135.886719 357.304688 133.199219 356.34375 C 130.507812 355.378906 127.84375 354.351562 125.203125 353.257812 C 122.566406 352.164062 119.953125 351.007812 117.371094 349.789062 C 114.789062 348.566406 112.238281 347.28125 109.71875 345.933594 C 107.199219 344.589844 104.714844 343.179688 102.265625 341.710938 C 99.816406 340.242188 97.402344 338.714844 95.027344 337.128906 C 92.652344 335.542969 90.316406 333.898438 88.023438 332.195312 C 85.730469 330.496094 83.476562 328.738281 81.269531 326.925781 C 79.0625 325.113281 76.898438 323.246094 74.78125 321.328125 C 72.664062 319.410156 70.597656 317.441406 68.578125 315.421875 C 66.558594 313.402344 64.589844 311.335938 62.671875 309.21875 C 60.753906 307.101562 58.886719 304.9375 57.074219 302.730469 C 55.261719 300.523438 53.503906 298.269531 51.804688 295.976562 C 50.101562 293.683594 48.457031 291.347656 46.871094 288.972656 C 45.285156 286.597656 43.757812 284.183594 42.289062 281.734375 C 40.820312 279.285156 39.410156 276.800781 38.066406 274.28125 C 36.71875 271.761719 35.433594 269.210938 34.210938 266.628906 C 32.992188 264.046875 31.835938 261.433594 30.742188 258.796875 C 29.648438 256.15625 28.621094 253.492188 27.65625 250.800781 C 26.695312 248.113281 25.800781 245.402344 24.96875 242.667969 C 24.140625 239.933594 23.378906 237.183594 22.683594 234.410156 C 21.992188 231.640625 21.367188 228.855469 20.808594 226.050781 C 20.25 223.25 19.761719 220.4375 19.34375 217.609375 C 18.925781 214.785156 18.574219 211.953125 18.296875 209.109375 C 18.015625 206.265625 17.804688 203.417969 17.664062 200.566406 C 17.523438 197.710938 17.453125 194.855469 17.453125 192 C 17.453125 189.144531 17.523438 186.289062 17.664062 183.433594 C 17.804688 180.582031 18.015625 177.734375 18.296875 174.890625 C 18.574219 172.046875 18.925781 169.214844 19.34375 166.390625 C 19.761719 163.5625 20.25 160.75 20.808594 157.949219 C 21.367188 155.144531 21.992188 152.359375 22.683594 149.589844 C 23.378906 146.816406 24.140625 144.066406 24.96875 141.332031 C 25.800781 138.597656 26.695312 135.886719 27.65625 133.199219 C 28.621094 130.507812 29.648438 127.84375 30.742188 125.203125 C 31.835938 122.566406 32.992188 119.953125 34.210938 117.371094 C 35.433594 114.789062 36.71875 112.238281 38.066406 109.71875 C 39.410156 107.199219 40.820312 104.714844 42.289062 102.265625 C 43.757812 99.816406 45.285156 97.402344 46.871094 95.027344 C 48.457031 92.652344 50.101562 90.316406 51.804688 88.023438 C 53.503906 85.730469 55.261719 83.476562 57.074219 81.269531 C 58.886719 79.0625 60.753906 76.898438 62.671875 74.78125 C 64.589844 72.664062 66.558594 70.597656 68.578125 68.578125 C 70.597656 66.558594 72.664062 64.589844 74.78125 62.671875 C 76.898438 60.753906 79.0625 58.886719 81.269531 57.074219 C 83.476562 55.261719 85.730469 53.503906 88.023438 51.804688 C 90.316406 50.101562 92.652344 48.457031 95.027344 46.871094 C 97.402344 45.285156 99.816406 43.757812 102.265625 42.289062 C 104.714844 40.820312 107.199219 39.410156 109.71875 38.066406 C 112.238281 36.71875 114.789062 35.433594 117.371094 34.210938 C 119.953125 32.992188 122.566406 31.835938 125.203125 30.742188 C 127.84375 29.648438 130.507812 28.621094 133.199219 27.65625 C 135.886719 26.695312 138.597656 25.800781 141.332031 24.96875 C 144.066406 24.140625 146.816406 23.378906 149.589844 22.683594 C 152.359375 21.992188 155.144531 21.367188 157.949219 20.808594 C 160.75 20.25 163.5625 19.761719 166.390625 19.34375 C 169.214844 18.925781 172.046875 18.574219 174.890625 18.296875 C 177.734375 18.015625 180.582031 17.804688 183.433594 17.664062 C 186.289062 17.523438 189.144531 17.453125 192 17.453125 C 194.855469 17.453125 197.710938 17.523438 200.566406 17.664062 C 203.417969 17.804688 206.265625 18.015625 209.109375 18.296875 C 211.953125 18.574219 214.785156 18.925781 217.609375 19.34375 C 220.4375 19.761719 223.25 20.25 226.050781 20.808594 C 228.855469 21.367188 231.640625 21.992188 234.410156 22.683594 C 237.183594 23.378906 239.933594 24.140625 242.667969 24.96875 C 245.402344 25.800781 248.113281 26.695312 250.800781 27.65625 C 253.492188 28.621094 256.15625 29.648438 258.796875 30.742188 C 261.433594 31.835938 264.046875 32.992188 266.628906 34.210938 C 269.210938 35.433594 271.761719 36.71875 274.28125 38.066406 C 276.800781 39.410156 279.285156 40.820312 281.734375 42.289062 C 284.183594 43.757812 286.597656 45.285156 288.972656 46.871094 C 291.347656 48.457031 293.683594 50.101562 295.976562 51.804688 C 298.269531 53.503906 300.523438 55.261719 302.730469 57.074219 C 304.9375 58.886719 307.101562 60.753906 309.21875 62.671875 C 311.335938 64.589844 313.402344 66.558594 315.421875 68.578125 C 317.441406 70.597656 319.410156 72.664062 321.328125 74.78125 C 323.246094 76.898438 325.113281 79.0625 326.925781 81.269531 C 328.738281 83.476562 330.496094 85.730469 332.195312 88.023438 C 333.898438 90.316406 335.542969 92.652344 337.128906 95.027344 C 338.714844 97.402344 340.242188 99.816406 341.710938 102.265625 C 343.179688 104.714844 344.589844 107.199219 345.933594 109.71875 C 347.28125 112.238281 348.566406 114.789062 349.789062 117.371094 C 351.007812 119.953125 352.164062 122.566406 353.257812 125.203125 C 354.351562 127.84375 355.378906 130.507812 356.34375 133.199219 C 357.304688 135.886719 358.199219 138.597656 359.03125 141.332031 C 359.859375 144.066406 360.621094 146.816406 361.316406 149.589844 C 362.007812 152.359375 362.632812 155.144531 363.191406 157.949219 C 363.75 160.75 364.238281 163.5625 364.65625 166.390625 C 365.074219 169.214844 365.425781 172.046875 365.703125 174.890625 C 365.984375 177.734375 366.195312 180.582031 366.335938 183.433594 C 366.476562 186.289062 366.546875 189.144531 366.546875 192 C 366.542969 194.855469 366.46875 197.710938 366.324219 200.5625 C 366.183594 203.414062 365.96875 206.261719 365.6875 209.101562 C 365.402344 211.945312 365.050781 214.777344 364.628906 217.601562 C 364.207031 220.425781 363.71875 223.238281 363.160156 226.039062 C 362.597656 228.839844 361.972656 231.625 361.273438 234.394531 C 360.578125 237.164062 359.816406 239.914062 358.984375 242.644531 C 358.152344 245.378906 357.257812 248.085938 356.292969 250.777344 C 355.328125 253.464844 354.300781 256.125 353.207031 258.765625 C 352.109375 261.402344 350.953125 264.011719 349.730469 266.59375 C 348.507812 269.171875 347.222656 271.722656 345.875 274.242188 C 344.527344 276.757812 343.121094 279.242188 341.652344 281.691406 C 340.183594 284.140625 338.65625 286.550781 337.066406 288.925781 C 335.480469 291.296875 333.835938 293.632812 332.132812 295.925781 C 330.433594 298.21875 328.675781 300.46875 326.863281 302.675781 C 325.050781 304.882812 323.1875 307.046875 321.269531 309.160156 C 319.351562 311.277344 317.382812 313.34375 315.363281 315.363281 C 313.34375 317.382812 311.277344 319.351562 309.160156 321.269531 C 307.046875 323.1875 304.882812 325.050781 302.675781 326.863281 C 300.46875 328.675781 298.21875 330.433594 295.925781 332.132812 C 293.632812 333.835938 291.296875 335.480469 288.925781 337.066406 C 286.550781 338.65625 284.140625 340.183594 281.691406 341.652344 C 279.242188 343.121094 276.757812 344.527344 274.242188 345.875 C 271.722656 347.222656 269.171875 348.507812 266.59375 349.730469 C 264.011719 350.953125 261.402344 352.109375 258.765625 353.207031 C 256.125 354.300781 253.464844 355.328125 250.777344 356.292969 C 248.085938 357.257812 245.378906 358.152344 242.644531 358.984375 C 239.914062 359.816406 237.164062 360.578125 234.394531 361.273438 C 231.625 361.972656 228.839844 362.597656 226.039062 363.160156 C 223.238281 363.71875 220.425781 364.207031 217.601562 364.628906 C 214.777344 365.050781 211.945312 365.402344 209.101562 365.6875 C 206.261719 365.96875 203.414062 366.183594 200.5625 366.324219 C 197.710938 366.46875 194.855469 366.542969 192 366.546875 Z M 192 366.546875 " fill-opacity="1" fill-rule="nonzero"/></svg>