<svg xmlns="http://www.w3.org/2000/svg" xmlns:xlink="http://www.w3.org/1999/xlink" width="200" zoomAndPan="magnify" viewBox="0 0 300 112.499997" height="75" preserveAspectRatio="xMidYMid meet" version="1.0"><defs><clipPath id="5a199d3178"><path d="M 0.664062 4.589844 L 299.335938 4.589844 L 299.335938 107.628906 L 0.664062 107.628906 Z M 0.664062 4.589844 " clip-rule="nonzero"/></clipPath></defs><g clip-path="url(#5a199d3178)"><rect x="-30" width="360" fill="#ffffff" y="-11.25" height="134.999996" fill-opacity="1"/></g><path fill="#000000" d="M 235.9375 46.195312 C 235.570312 44.558594 235.847656 38.679688 235.859375 36.613281 C 235.882812 32.089844 235.117188 31.152344 239.789062 31.164062 C 244.496094 31.171875 243.597656 32.421875 243.574219 36.8125 C 243.558594 39.859375 243.613281 43.183594 243.441406 46.261719 Z M 242.1875 51.742188 C 243.066406 51.742188 243.375 51.570312 243.457031 52.433594 C 243.734375 55.414062 242.570312 58.269531 246.308594 58.347656 C 255.976562 58.558594 254.535156 58.65625 254.53125 49.277344 C 254.53125 46.375 254.542969 43.472656 254.578125 40.570312 C 254.632812 35.652344 255.824219 29.179688 251.144531 26.648438 C 248.574219 25.257812 246.960938 25.617188 243.746094 25.589844 C 240.84375 25.5625 237.945312 25.535156 235.042969 25.515625 C 231.65625 25.492188 230.316406 25.199219 227.703125 26.902344 C 223.839844 29.429688 224.675781 35.667969 224.648438 41.164062 C 224.632812 44.066406 224.617188 46.96875 224.613281 49.867188 C 224.609375 51.988281 224.0625 56.585938 225.425781 57.707031 C 226.3125 58.4375 232.207031 58.441406 233.664062 58.222656 C 236.542969 57.78125 235.238281 54.273438 235.710938 51.746094 L 242.183594 51.746094 Z M 242.1875 51.742188 " fill-opacity="1" fill-rule="evenodd"/><path fill="#000000" d="M 188.550781 57.53125 C 189.632812 58.222656 189.433594 58.429688 191.320312 58.453125 C 197.660156 58.53125 197.335938 58.722656 197.367188 53.722656 C 197.398438 48.980469 197.695312 43.699219 197.476562 39.027344 C 200.148438 43.382812 204.03125 51.222656 206.523438 55.9375 C 207.683594 58.035156 207.542969 58.523438 210.515625 58.5625 C 218.804688 58.671875 218.867188 59.375 218.898438 53.921875 C 218.9375 47.460938 218.9375 41 218.960938 34.535156 C 218.996094 25.890625 219.914062 25.929688 214.867188 25.90625 C 212.75 25.898438 210.300781 25.375 209.960938 27.4375 C 209.554688 29.941406 210.121094 42.558594 209.65625 46.519531 C 206.355469 40.574219 203.277344 33.789062 200.082031 27.859375 C 198.765625 25.417969 198.183594 25.773438 193.710938 25.730469 C 188.75 25.683594 188.703125 25 188.675781 29.988281 L 188.503906 48.382812 C 188.488281 50.941406 188.207031 55.171875 188.550781 57.53125 Z M 188.550781 57.53125 " fill-opacity="1" fill-rule="evenodd"/><path fill="#000000" d="M 270.992188 49.179688 C 270.984375 46.28125 271.015625 43.371094 271.042969 40.472656 C 271.136719 30.546875 270.015625 31.003906 274.605469 31.074219 C 275.507812 31.085938 278.148438 30.898438 278.75 31.382812 C 279.964844 32.359375 277.761719 36.898438 280.910156 37.734375 C 282.039062 38.03125 288.296875 38.078125 289.222656 37.683594 C 291.128906 36.867188 290.914062 33.097656 290.324219 30.859375 C 288.722656 24.800781 283.03125 25.558594 278.757812 25.546875 L 270.453125 25.523438 C 266.648438 25.511719 264.214844 25.078125 261.660156 27.925781 C 260.203125 29.546875 260.03125 31.300781 259.988281 33.949219 C 259.90625 38.96875 259.824219 44.097656 259.8125 49.179688 C 259.785156 58.609375 264.710938 58.375 271.441406 58.351562 L 282.121094 58.410156 C 286.046875 58.421875 288.183594 57.457031 289.648438 54.726562 C 290.527344 53.085938 290.472656 52.210938 290.488281 50.167969 C 290.523438 44.914062 291.21875 44.109375 286.078125 44.050781 C 284.679688 44.03125 282.21875 43.863281 280.9375 44.03125 C 277.589844 44.460938 279.507812 49.464844 278.660156 52.214844 C 277.136719 52.605469 272.3125 52.667969 271.089844 52.023438 Z M 270.992188 49.179688 " fill-opacity="1" fill-rule="evenodd"/><path fill="#000000" d="M 108.738281 30.207031 C 110.503906 30.167969 113.371094 30.089844 115.039062 30.246094 C 117.257812 30.453125 116.71875 32.835938 116.710938 34.933594 C 116.710938 35.921875 116.761719 37.148438 116.691406 38.113281 C 116.617188 39.199219 116.234375 39.617188 115.082031 39.699219 C 113.472656 39.820312 110.492188 39.742188 108.808594 39.632812 L 108.738281 39.628906 C 108.738281 36.488281 108.738281 33.351562 108.738281 30.210938 Z M 108.808594 44.363281 C 108.808594 44.480469 120.335938 44.496094 121.410156 44.460938 C 127.480469 44.253906 128.292969 36.835938 127.664062 32.003906 C 126.753906 25.039062 120.207031 25.621094 115.46875 25.582031 C 111.3125 25.546875 107.160156 25.53125 103.007812 25.53125 C 96.671875 25.527344 97.507812 25.007812 97.425781 32.554688 C 97.339844 40.296875 97.386719 47.960938 97.386719 55.859375 C 97.386719 56.851562 97.960938 58.351562 98.867188 58.351562 L 106.921875 58.351562 C 107.828125 58.351562 108.738281 56.851562 108.738281 55.859375 L 108.742188 44.363281 L 108.8125 44.363281 Z M 97.445312 57.101562 C 97.460938 57.257812 97.476562 57.386719 97.496094 57.476562 C 97.550781 57.507812 97.605469 57.535156 97.660156 57.5625 C 97.578125 57.417969 97.503906 57.261719 97.445312 57.101562 Z M 97.445312 57.101562 " fill-opacity="1" fill-rule="evenodd"/><path fill="#000000" d="M 142.777344 52.140625 C 142.390625 49.886719 142.78125 43.554688 142.804688 40.867188 C 142.980469 23.039062 144.316406 25.398438 136.039062 25.34375 C 133.921875 25.332031 132.097656 24.796875 131.890625 27.019531 C 131.742188 28.636719 131.851562 30.871094 131.832031 32.558594 C 131.746094 39.992188 131.753906 47.472656 131.632812 54.910156 C 131.59375 57.304688 131.746094 57.980469 134.253906 58.054688 C 137.621094 58.148438 148.816406 58.289062 151.070312 58.105469 C 151.230469 53.972656 151.78125 52.238281 148.503906 52.234375 Z M 142.777344 52.140625 " fill-opacity="1" fill-rule="evenodd"/><path fill="#000000" d="M 166.515625 46 C 166.148438 44.363281 166.421875 38.484375 166.4375 36.417969 C 166.441406 35.378906 166.40625 34.527344 166.402344 33.835938 C 166.394531 31.511719 166.765625 30.960938 170.367188 30.96875 C 175.070312 30.976562 174.171875 32.226562 174.152344 36.617188 C 174.136719 39.664062 174.1875 42.988281 174.015625 46.066406 Z M 172.761719 51.546875 C 173.640625 51.542969 173.949219 51.375 174.03125 52.238281 C 174.308594 55.214844 173.144531 58.074219 176.882812 58.152344 C 186.550781 58.359375 185.109375 58.460938 185.105469 49.078125 C 185.101562 46.179688 185.117188 43.273438 185.152344 40.375 C 185.210938 35.453125 186.398438 28.984375 181.722656 26.453125 C 179.148438 25.058594 177.535156 25.417969 174.324219 25.390625 C 171.421875 25.367188 168.519531 25.339844 165.617188 25.320312 C 162.234375 25.292969 160.890625 25.003906 158.28125 26.707031 C 154.414062 29.230469 155.25 35.472656 155.222656 40.96875 C 155.210938 43.871094 155.195312 46.773438 155.1875 49.671875 C 155.183594 51.792969 154.636719 56.390625 156 57.511719 C 156.890625 58.242188 162.785156 58.246094 164.238281 58.023438 C 167.121094 57.585938 165.8125 54.074219 166.289062 51.550781 Z M 172.761719 51.546875 " fill-opacity="1" fill-rule="evenodd"/><path fill="#6d6c71" d="M 115.246094 85.660156 C 115.246094 85.800781 115.335938 85.894531 115.46875 85.894531 L 118.300781 85.894531 C 118.433594 85.894531 118.523438 85.800781 118.523438 85.660156 L 118.523438 70.332031 C 118.523438 70.195312 118.433594 70.101562 118.300781 70.101562 L 115.46875 70.101562 C 115.335938 70.101562 115.246094 70.195312 115.246094 70.332031 Z M 115.246094 85.660156 " fill-opacity="1" fill-rule="nonzero"/><path fill="#6d6c71" d="M 145.863281 85.894531 C 146 85.894531 146.089844 85.800781 146.089844 85.660156 L 146.089844 73.554688 C 146.089844 73.460938 146.132812 73.414062 146.222656 73.414062 L 150.058594 73.414062 C 150.195312 73.414062 150.28125 73.320312 150.28125 73.183594 L 150.28125 70.476562 C 150.28125 70.335938 150.191406 70.242188 150.058594 70.242188 L 138.839844 70.242188 C 138.707031 70.242188 138.617188 70.335938 138.617188 70.476562 L 138.617188 73.183594 C 138.617188 73.320312 138.707031 73.414062 138.839844 73.414062 L 142.675781 73.414062 C 142.765625 73.414062 142.808594 73.460938 142.808594 73.554688 L 142.808594 85.660156 C 142.808594 85.800781 142.898438 85.894531 143.03125 85.894531 Z M 145.863281 85.894531 " fill-opacity="1" fill-rule="nonzero"/><path fill="#6d6c71" d="M 173.027344 85.660156 C 173.027344 85.800781 173.117188 85.894531 173.25 85.894531 L 176.082031 85.894531 C 176.21875 85.894531 176.304688 85.800781 176.304688 85.660156 L 176.304688 70.332031 C 176.304688 70.195312 176.214844 70.101562 176.082031 70.101562 L 173.25 70.101562 C 173.117188 70.101562 173.027344 70.195312 173.027344 70.332031 Z M 173.027344 85.660156 " fill-opacity="1" fill-rule="nonzero"/><path fill="#6d6c71" d="M 182.929688 85.660156 C 182.929688 85.800781 183.019531 85.894531 183.15625 85.894531 L 188.910156 85.894531 C 192.1875 85.894531 194.175781 84.40625 194.175781 81.296875 C 194.175781 79.414062 193.148438 78.113281 192.144531 77.71875 L 192.144531 77.671875 C 193.148438 77.09375 193.90625 76.023438 193.90625 74.304688 C 193.90625 71.796875 192.367188 70.101562 189.066406 70.101562 L 183.15625 70.101562 C 183.019531 70.101562 182.929688 70.195312 182.929688 70.335938 L 182.929688 85.664062 Z M 186.191406 76.003906 C 186.105469 76.003906 186.0625 75.972656 186.0625 75.910156 L 186.0625 73.613281 C 186.0625 73.550781 186.105469 73.519531 186.191406 73.519531 L 188.410156 73.519531 C 189.601562 73.519531 190.308594 73.78125 190.308594 74.753906 C 190.308594 75.710938 189.601562 76.003906 188.410156 76.003906 Z M 186.203125 82.40625 C 186.109375 82.40625 186.0625 82.367188 186.0625 82.292969 L 186.0625 79.515625 C 186.0625 79.441406 186.109375 79.402344 186.203125 79.402344 L 188.621094 79.402344 C 189.921875 79.402344 190.6875 79.722656 190.6875 80.898438 C 190.6875 82.054688 189.917969 82.40625 188.621094 82.40625 Z M 186.203125 82.40625 " fill-opacity="1" fill-rule="nonzero"/><path fill="#6d6c71" d="M 204.75 85.828125 C 208.140625 85.828125 210.550781 84.011719 210.550781 80.089844 L 210.550781 70.335938 C 210.550781 70.195312 210.460938 70.101562 210.328125 70.101562 L 207.496094 70.101562 C 207.363281 70.101562 207.273438 70.195312 207.273438 70.335938 L 207.273438 79.515625 C 207.273438 81.398438 206.269531 82.464844 204.75 82.464844 C 203.210938 82.464844 202.207031 81.398438 202.207031 79.515625 L 202.207031 70.335938 C 202.207031 70.195312 202.117188 70.101562 201.984375 70.101562 L 199.152344 70.101562 C 199.015625 70.101562 198.929688 70.195312 198.929688 70.335938 L 198.929688 80.089844 C 198.929688 84.011719 201.335938 85.828125 204.75 85.828125 Z M 204.75 85.828125 " fill-opacity="1" fill-rule="nonzero"/><path fill="#6d6c71" d="M 216.824219 85.660156 C 216.824219 85.800781 216.914062 85.894531 217.046875 85.894531 L 219.882812 85.894531 C 220.015625 85.894531 220.105469 85.800781 220.105469 85.660156 L 220.105469 70.332031 C 220.105469 70.195312 220.015625 70.101562 219.882812 70.101562 L 217.046875 70.101562 C 216.914062 70.101562 216.824219 70.195312 216.824219 70.332031 Z M 216.824219 85.660156 " fill-opacity="1" fill-rule="nonzero"/><path fill="#6d6c71" d="M 226.25 85.660156 C 226.25 85.800781 226.339844 85.894531 226.472656 85.894531 L 232.117188 85.894531 C 234.773438 85.894531 236.621094 84.710938 237.359375 82.339844 C 237.625 81.457031 237.761719 80.578125 237.761719 78 C 237.761719 75.421875 237.625 74.539062 237.359375 73.65625 C 236.621094 71.285156 234.769531 70.101562 232.117188 70.101562 L 226.472656 70.101562 C 226.339844 70.101562 226.25 70.195312 226.25 70.335938 L 226.25 85.664062 Z M 229.636719 82.328125 L 229.636719 73.578125 C 229.636719 73.488281 229.679688 73.449219 229.761719 73.449219 L 231.355469 73.449219 C 232.761719 73.449219 233.613281 73.878906 233.964844 75.066406 C 234.109375 75.496094 234.195312 76.054688 234.195312 77.953125 C 234.195312 79.851562 234.109375 80.414062 233.964844 80.84375 C 233.613281 82.03125 232.761719 82.460938 231.355469 82.460938 L 229.761719 82.460938 C 229.675781 82.460938 229.636719 82.417969 229.636719 82.332031 Z M 229.636719 82.328125 " fill-opacity="1" fill-rule="nonzero"/><path fill="#6d6c71" d="M 276.566406 85.667969 C 276.515625 85.804688 276.566406 85.898438 276.722656 85.898438 L 279.644531 85.898438 C 279.800781 85.898438 279.882812 85.828125 279.933594 85.667969 L 280.78125 83.191406 L 286.09375 83.191406 L 286.960938 85.667969 C 287.019531 85.824219 287.09375 85.898438 287.253906 85.898438 L 290.152344 85.898438 C 290.308594 85.898438 290.359375 85.804688 290.308594 85.667969 L 284.695312 70.339844 C 284.644531 70.203125 284.5625 70.105469 284.40625 70.105469 L 282.542969 70.105469 C 282.386719 70.105469 282.304688 70.203125 282.253906 70.339844 Z M 283.4375 76.476562 L 284.042969 78.046875 L 284.113281 78.230469 L 284.644531 79.617188 L 284.789062 79.984375 L 282.085938 79.984375 L 282.230469 79.617188 L 282.761719 78.230469 L 282.832031 78.046875 Z M 283.4375 76.476562 " fill-opacity="1" fill-rule="nonzero"/><path fill="#6d6c71" d="M 246.800781 80.976562 C 246.5 80.03125 246.511719 76.035156 246.800781 75.09375 C 247.082031 74.195312 247.742188 73.65625 248.773438 73.65625 C 249.804688 73.65625 250.464844 74.195312 250.746094 75.09375 C 251.039062 76.035156 251.046875 80.03125 250.746094 80.976562 C 250.46875 81.878906 249.804688 82.414062 248.773438 82.414062 C 247.742188 82.414062 247.078125 81.878906 246.800781 80.976562 Z M 254.308594 82.316406 C 254.640625 81.226562 254.730469 80.34375 254.730469 78 C 254.730469 75.652344 254.640625 74.769531 254.308594 73.679688 C 253.527344 71.125 251.429688 69.847656 248.773438 69.847656 C 246.121094 69.847656 244.023438 71.125 243.242188 73.679688 C 242.90625 74.769531 242.816406 75.652344 242.816406 78 C 242.816406 80.34375 242.90625 81.226562 243.242188 82.316406 C 244.023438 84.871094 246.121094 86.152344 248.773438 86.152344 C 251.429688 86.152344 253.527344 84.871094 254.308594 82.316406 Z M 254.308594 82.316406 " fill-opacity="1" fill-rule="evenodd"/><path fill="#6d6c71" d="M 167.941406 85.898438 C 168.097656 85.898438 168.175781 85.753906 168.097656 85.621094 L 164.367188 79.394531 C 166.042969 78.628906 167.363281 77.027344 167.363281 75.003906 C 167.363281 72.125 165.308594 70.105469 162.210938 70.105469 L 156.164062 70.105469 C 156.03125 70.105469 155.941406 70.199219 155.941406 70.339844 L 155.941406 85.664062 C 155.941406 85.804688 156.03125 85.898438 156.164062 85.898438 L 158.996094 85.898438 C 159.132812 85.898438 159.222656 85.804688 159.222656 85.664062 L 159.222656 80.023438 C 159.222656 79.929688 159.265625 79.882812 159.355469 79.882812 L 160.890625 79.882812 L 163.996094 85.664062 C 164.078125 85.820312 164.128906 85.898438 164.328125 85.898438 Z M 162.480469 76.300781 L 159.578125 76.300781 C 159.488281 76.300781 159.441406 76.253906 159.441406 76.164062 L 159.441406 73.511719 C 159.441406 73.417969 159.488281 73.371094 159.578125 73.371094 L 162.480469 73.371094 C 164.433594 73.371094 164.363281 76.300781 162.480469 76.300781 Z M 162.480469 76.300781 " fill-opacity="1" fill-rule="nonzero"/><path fill="#6d6c71" d="M 98.375 85.660156 C 98.375 85.800781 98.464844 85.894531 98.597656 85.894531 L 104.242188 85.894531 C 106.898438 85.894531 108.746094 84.710938 109.484375 82.339844 C 109.75 81.457031 109.886719 80.578125 109.886719 78 C 109.886719 75.421875 109.75 74.539062 109.484375 73.65625 C 108.746094 71.285156 106.894531 70.101562 104.242188 70.101562 L 98.597656 70.101562 C 98.464844 70.101562 98.375 70.195312 98.375 70.335938 L 98.375 85.664062 Z M 101.761719 82.328125 L 101.761719 73.578125 C 101.761719 73.488281 101.804688 73.449219 101.886719 73.449219 L 103.480469 73.449219 C 104.890625 73.449219 105.738281 73.878906 106.089844 75.066406 C 106.234375 75.496094 106.320312 76.054688 106.320312 77.953125 C 106.320312 79.851562 106.234375 80.414062 106.089844 80.84375 C 105.738281 82.03125 104.890625 82.460938 103.480469 82.460938 L 101.886719 82.460938 C 101.804688 82.460938 101.761719 82.417969 101.761719 82.332031 Z M 101.761719 82.328125 " fill-opacity="1" fill-rule="nonzero"/><path fill="#6d6c71" d="M 272.835938 85.898438 C 272.992188 85.898438 273.070312 85.753906 272.992188 85.621094 L 269.261719 79.394531 C 270.9375 78.628906 272.257812 77.027344 272.257812 75.003906 C 272.257812 72.125 270.203125 70.105469 267.105469 70.105469 L 261.058594 70.105469 C 260.925781 70.105469 260.835938 70.199219 260.835938 70.339844 L 260.835938 85.664062 C 260.835938 85.804688 260.925781 85.898438 261.058594 85.898438 L 263.890625 85.898438 C 264.023438 85.898438 264.113281 85.804688 264.113281 85.664062 L 264.113281 80.023438 C 264.113281 79.929688 264.160156 79.882812 264.25 79.882812 L 265.785156 79.882812 L 268.886719 85.664062 C 268.972656 85.820312 269.023438 85.898438 269.222656 85.898438 Z M 267.375 76.300781 L 264.46875 76.300781 C 264.382812 76.300781 264.335938 76.253906 264.335938 76.164062 L 264.335938 73.511719 C 264.335938 73.417969 264.382812 73.371094 264.46875 73.371094 L 267.375 73.371094 C 269.328125 73.371094 269.253906 76.300781 267.375 76.300781 Z M 267.375 76.300781 " fill-opacity="1" fill-rule="nonzero"/><path fill="#6d6c71" d="M 133.347656 74.746094 L 134.949219 71.691406 C 131.449219 68.917969 124.167969 69.019531 123.757812 74.550781 C 123.566406 77.109375 125.140625 78.785156 126.8125 79.234375 C 128.488281 79.683594 131.621094 79.457031 131.621094 81.328125 C 131.621094 83.203125 126.347656 82.90625 124.710938 80.796875 L 122.96875 83.6875 C 125.601562 85.558594 130.328125 86.832031 133.097656 84.917969 C 135.132812 83.511719 135.714844 80.542969 134.433594 78.4375 C 133.742188 77.308594 132.542969 76.625 130.855469 76.425781 C 130.0625 76.332031 129.359375 76.230469 128.796875 76.078125 C 126.4375 75.441406 127.050781 73.390625 129.175781 73.132812 C 130.261719 73.003906 131.757812 73.460938 133.347656 74.75 Z M 133.347656 74.746094 " fill-opacity="1" fill-rule="evenodd"/><path fill="#fc0122" d="M 10.382812 13.234375 L 79.101562 13.234375 C 79.222656 13.234375 79.320312 13.332031 79.320312 13.453125 L 79.320312 89.023438 C 79.320312 93.824219 75.390625 97.757812 70.585938 97.757812 L 18.898438 97.757812 C 14.09375 97.757812 10.164062 93.824219 10.164062 89.019531 L 10.164062 13.453125 C 10.164062 13.332031 10.261719 13.234375 10.382812 13.234375 Z M 22.363281 40.5 L 54.4375 40.5 C 54.558594 40.5 54.65625 40.597656 54.65625 40.71875 L 54.65625 69.828125 C 54.65625 69.945312 54.558594 70.046875 54.4375 70.046875 L 48 70.046875 C 47.878906 70.046875 47.78125 69.949219 47.78125 69.828125 L 47.78125 47.257812 L 22.363281 47.257812 C 22.238281 47.257812 22.140625 47.160156 22.140625 47.039062 L 22.140625 40.71875 C 22.140625 40.597656 22.238281 40.5 22.363281 40.5 Z M 30.210938 81.1875 L 30.210938 86.308594 C 30.210938 86.429688 30.113281 86.53125 29.992188 86.53125 L 23.554688 86.53125 C 23.433594 86.53125 23.335938 86.429688 23.335938 86.308594 L 23.335938 74.652344 C 23.335938 74.53125 23.433594 74.429688 23.554688 74.429688 L 60.253906 74.429688 L 60.253906 35.683594 L 22.363281 35.683594 C 22.242188 35.683594 22.140625 35.585938 22.140625 35.464844 L 22.140625 29.144531 C 22.140625 29.023438 22.242188 28.925781 22.363281 28.925781 L 66.910156 28.925781 C 67.03125 28.925781 67.132812 29.023438 67.132812 29.144531 L 67.132812 80.96875 C 67.132812 81.09375 67.03125 81.191406 66.910156 81.191406 L 30.214844 81.191406 Z M 22.363281 50.777344 L 41.703125 50.777344 C 41.824219 50.777344 41.921875 50.875 41.921875 50.996094 L 41.921875 70.535156 C 41.921875 70.65625 41.824219 70.753906 41.703125 70.753906 L 22.363281 70.753906 C 22.238281 70.753906 22.140625 70.65625 22.140625 70.535156 L 22.140625 50.996094 C 22.140625 50.875 22.238281 50.777344 22.363281 50.777344 Z M 22.363281 50.777344 " fill-opacity="1" fill-rule="evenodd"/><path fill="#000000" d="M 10.382812 12.921875 L 79.101562 12.921875 C 79.246094 12.921875 79.378906 12.984375 79.476562 13.078125 C 79.570312 13.175781 79.628906 13.308594 79.628906 13.453125 L 79.628906 89.023438 C 79.628906 91.507812 78.613281 93.769531 76.972656 95.410156 C 75.335938 97.046875 73.074219 98.066406 70.585938 98.066406 L 18.898438 98.066406 C 16.410156 98.066406 14.148438 97.046875 12.511719 95.40625 C 10.871094 93.769531 9.855469 91.507812 9.855469 89.019531 L 9.855469 13.453125 C 9.855469 13.308594 9.914062 13.175781 10.007812 13.082031 C 10.105469 12.984375 10.238281 12.921875 10.382812 12.921875 Z M 79.011719 13.542969 L 10.472656 13.542969 L 10.472656 89.019531 C 10.472656 91.335938 11.421875 93.441406 12.949219 94.96875 C 14.476562 96.5 16.582031 97.445312 18.898438 97.445312 L 70.585938 97.445312 C 72.902344 97.445312 75.007812 96.5 76.535156 94.96875 C 78.0625 93.445312 79.011719 91.335938 79.011719 89.019531 Z M 22.363281 40.1875 L 54.441406 40.1875 C 54.582031 40.1875 54.71875 40.246094 54.8125 40.34375 C 54.910156 40.441406 54.96875 40.574219 54.96875 40.71875 L 54.96875 69.824219 C 54.96875 69.96875 54.910156 70.101562 54.8125 70.199219 C 54.714844 70.296875 54.582031 70.355469 54.441406 70.355469 L 48 70.355469 C 47.855469 70.355469 47.722656 70.296875 47.628906 70.199219 C 47.535156 70.105469 47.472656 69.972656 47.472656 69.824219 L 47.472656 47.566406 L 22.363281 47.566406 C 22.21875 47.566406 22.082031 47.507812 21.988281 47.410156 C 21.890625 47.316406 21.832031 47.183594 21.832031 47.035156 L 21.832031 40.71875 C 21.832031 40.574219 21.890625 40.441406 21.988281 40.34375 C 22.085938 40.246094 22.21875 40.1875 22.363281 40.1875 Z M 54.351562 40.808594 L 22.453125 40.808594 L 22.453125 46.949219 L 48.089844 46.949219 L 48.089844 69.734375 L 54.351562 69.734375 Z M 30.523438 81.5 L 30.523438 86.308594 C 30.523438 86.453125 30.464844 86.585938 30.367188 86.683594 C 30.273438 86.777344 30.140625 86.839844 29.992188 86.839844 L 23.554688 86.839844 C 23.410156 86.839844 23.273438 86.777344 23.179688 86.683594 C 23.085938 86.585938 23.023438 86.453125 23.023438 86.308594 L 23.023438 74.648438 C 23.023438 74.503906 23.085938 74.371094 23.179688 74.277344 C 23.277344 74.179688 23.410156 74.121094 23.554688 74.121094 L 59.941406 74.121094 L 59.941406 35.992188 L 22.363281 35.992188 C 22.214844 35.992188 22.082031 35.933594 21.988281 35.835938 C 21.890625 35.742188 21.832031 35.605469 21.832031 35.464844 L 21.832031 29.144531 C 21.832031 29 21.890625 28.867188 21.988281 28.769531 C 22.085938 28.675781 22.21875 28.613281 22.363281 28.613281 L 66.910156 28.613281 C 67.054688 28.613281 67.1875 28.671875 67.285156 28.769531 C 67.378906 28.867188 67.4375 28.996094 67.4375 29.144531 L 67.4375 80.96875 C 67.4375 81.113281 67.378906 81.246094 67.285156 81.339844 C 67.1875 81.4375 67.054688 81.496094 66.910156 81.496094 L 30.523438 81.496094 Z M 29.902344 86.21875 L 29.902344 80.878906 L 66.820312 80.878906 L 66.820312 29.234375 L 22.453125 29.234375 L 22.453125 35.375 L 60.5625 35.375 L 60.5625 74.738281 L 23.644531 74.738281 L 23.644531 86.21875 Z M 22.363281 50.46875 L 41.703125 50.46875 C 41.851562 50.46875 41.980469 50.527344 42.078125 50.625 C 42.175781 50.71875 42.234375 50.855469 42.234375 50.996094 L 42.234375 70.535156 C 42.234375 70.679688 42.175781 70.8125 42.078125 70.90625 C 41.980469 71.003906 41.847656 71.0625 41.703125 71.0625 L 22.363281 71.0625 C 22.21875 71.0625 22.085938 71.003906 21.988281 70.910156 C 21.894531 70.8125 21.832031 70.679688 21.832031 70.535156 L 21.832031 50.996094 C 21.832031 50.855469 21.890625 50.71875 21.988281 50.625 C 22.085938 50.527344 22.214844 50.46875 22.363281 50.46875 Z M 41.613281 51.085938 L 22.453125 51.085938 L 22.453125 70.445312 L 41.613281 70.445312 Z M 41.613281 51.085938 " fill-opacity="1" fill-rule="nonzero"/></svg>