<svg xmlns="http://www.w3.org/2000/svg" xmlns:xlink="http://www.w3.org/1999/xlink" width="512" zoomAndPan="magnify" viewBox="0 0 384 383.999986" height="512" preserveAspectRatio="xMidYMid meet" version="1.0"><defs><clipPath id="9a1727dd78"><path d="M 113.183594 126 L 150.683594 126 L 150.683594 162.085938 L 113.183594 162.085938 Z M 113.183594 126 " clip-rule="nonzero"/></clipPath><clipPath id="7e4dec19a6"><path d="M 120 122.335938 L 143 122.335938 L 143 149 L 120 149 Z M 120 122.335938 " clip-rule="nonzero"/></clipPath><clipPath id="3378a73862"><path d="M 192 384 C 166.089844 384 140.941406 378.921875 117.257812 368.902344 C 105.878906 364.089844 94.902344 358.132812 84.636719 351.195312 C 74.472656 344.332031 64.917969 336.449219 56.234375 327.765625 C 47.550781 319.082031 39.667969 309.527344 32.804688 299.363281 C 25.867188 289.097656 19.910156 278.121094 15.097656 266.742188 C 5.078125 243.058594 0 217.910156 0 192 C 0 166.089844 5.078125 140.941406 15.097656 117.257812 C 19.910156 105.878906 25.867188 94.902344 32.804688 84.636719 C 39.667969 74.472656 47.550781 64.917969 56.234375 56.234375 C 64.917969 47.550781 74.472656 39.667969 84.636719 32.804688 C 94.902344 25.867188 105.878906 19.910156 117.257812 15.097656 C 140.941406 5.078125 166.089844 0 192 0 C 217.910156 0 243.058594 5.078125 266.742188 15.097656 C 278.121094 19.910156 289.097656 25.867188 299.363281 32.804688 C 309.527344 39.667969 319.082031 47.550781 327.765625 56.234375 C 336.449219 64.917969 344.332031 74.472656 351.195312 84.636719 C 358.132812 94.902344 364.089844 105.878906 368.902344 117.257812 C 378.921875 140.941406 384 166.089844 384 192 C 384 217.910156 378.921875 243.058594 368.902344 266.742188 C 364.089844 278.121094 358.132812 289.097656 351.195312 299.363281 C 344.332031 309.527344 336.449219 319.082031 327.765625 327.765625 C 319.082031 336.449219 309.527344 344.332031 299.363281 351.195312 C 289.097656 358.132812 278.121094 364.089844 266.742188 368.902344 C 243.058594 378.921875 217.910156 384 192 384 Z M 192 384 " clip-rule="nonzero"/></clipPath><linearGradient x1="81.000959" gradientTransform="matrix(0.198142, 0, 0, 0.198142, -16.049528, -16.049529)" y1="1050" x2="2018.9989" gradientUnits="userSpaceOnUse" y2="1050" id="3725000e49"><stop stop-opacity="1" stop-color="rgb(30.589294%, 63.919067%, 36.079407%)" offset="0"/><stop stop-opacity="1" stop-color="rgb(30.589294%, 63.919067%, 36.079407%)" offset="0.125"/><stop stop-opacity="1" stop-color="rgb(30.589294%, 63.919067%, 36.079407%)" offset="0.1875"/><stop stop-opacity="1" stop-color="rgb(30.69458%, 63.980103%, 36.079407%)" offset="0.195312"/><stop stop-opacity="1" stop-color="rgb(30.914307%, 64.108276%, 36.079407%)" offset="0.203125"/><stop stop-opacity="1" stop-color="rgb(31.140137%, 64.241028%, 36.079407%)" offset="0.210937"/><stop stop-opacity="1" stop-color="rgb(31.367493%, 64.372253%, 36.079407%)" offset="0.21875"/><stop stop-opacity="1" stop-color="rgb(31.593323%, 64.505005%, 36.079407%)" offset="0.226562"/><stop stop-opacity="1" stop-color="rgb(31.819153%, 64.63623%, 36.079407%)" offset="0.234375"/><stop stop-opacity="1" stop-color="rgb(32.046509%, 64.768982%, 36.079407%)" offset="0.242187"/><stop stop-opacity="1" stop-color="rgb(32.272339%, 64.901733%, 36.079407%)" offset="0.25"/><stop stop-opacity="1" stop-color="rgb(32.498169%, 65.032959%, 36.079407%)" offset="0.257812"/><stop stop-opacity="1" stop-color="rgb(32.725525%, 65.16571%, 36.079407%)" offset="0.265625"/><stop stop-opacity="1" stop-color="rgb(32.951355%, 65.296936%, 36.079407%)" offset="0.273437"/><stop stop-opacity="1" stop-color="rgb(33.178711%, 65.429688%, 36.079407%)" offset="0.28125"/><stop stop-opacity="1" stop-color="rgb(33.404541%, 65.560913%, 36.079407%)" offset="0.289062"/><stop stop-opacity="1" stop-color="rgb(33.630371%, 65.693665%, 36.079407%)" offset="0.296875"/><stop stop-opacity="1" stop-color="rgb(33.857727%, 65.826416%, 36.079407%)" offset="0.304687"/><stop stop-opacity="1" stop-color="rgb(34.083557%, 65.957642%, 36.079407%)" offset="0.3125"/><stop stop-opacity="1" stop-color="rgb(34.309387%, 66.090393%, 36.079407%)" offset="0.320312"/><stop stop-opacity="1" stop-color="rgb(34.536743%, 66.221619%, 36.079407%)" offset="0.328125"/><stop stop-opacity="1" stop-color="rgb(34.762573%, 66.35437%, 36.079407%)" offset="0.335937"/><stop stop-opacity="1" stop-color="rgb(34.988403%, 66.485596%, 36.079407%)" offset="0.34375"/><stop stop-opacity="1" stop-color="rgb(35.215759%, 66.618347%, 36.079407%)" offset="0.351562"/><stop stop-opacity="1" stop-color="rgb(35.441589%, 66.751099%, 36.079407%)" offset="0.359375"/><stop stop-opacity="1" stop-color="rgb(35.668945%, 66.882324%, 36.079407%)" offset="0.367187"/><stop stop-opacity="1" stop-color="rgb(35.894775%, 67.015076%, 36.079407%)" offset="0.375"/><stop stop-opacity="1" stop-color="rgb(36.120605%, 67.146301%, 36.079407%)" offset="0.382812"/><stop stop-opacity="1" stop-color="rgb(36.347961%, 67.279053%, 36.079407%)" offset="0.390625"/><stop stop-opacity="1" stop-color="rgb(36.573792%, 67.410278%, 36.079407%)" offset="0.398438"/><stop stop-opacity="1" stop-color="rgb(36.799622%, 67.54303%, 36.079407%)" offset="0.40625"/><stop stop-opacity="1" stop-color="rgb(37.026978%, 67.675781%, 36.079407%)" offset="0.414062"/><stop stop-opacity="1" stop-color="rgb(37.252808%, 67.807007%, 36.079407%)" offset="0.421875"/><stop stop-opacity="1" stop-color="rgb(37.478638%, 67.939758%, 36.079407%)" offset="0.429688"/><stop stop-opacity="1" stop-color="rgb(37.705994%, 68.070984%, 36.079407%)" offset="0.4375"/><stop stop-opacity="1" stop-color="rgb(37.931824%, 68.203735%, 36.079407%)" offset="0.445312"/><stop stop-opacity="1" stop-color="rgb(38.15918%, 68.334961%, 36.079407%)" offset="0.453125"/><stop stop-opacity="1" stop-color="rgb(38.38501%, 68.467712%, 36.079407%)" offset="0.460937"/><stop stop-opacity="1" stop-color="rgb(38.61084%, 68.600464%, 36.079407%)" offset="0.46875"/><stop stop-opacity="1" stop-color="rgb(38.838196%, 68.731689%, 36.079407%)" offset="0.476562"/><stop stop-opacity="1" stop-color="rgb(39.064026%, 68.864441%, 36.079407%)" offset="0.484375"/><stop stop-opacity="1" stop-color="rgb(39.289856%, 68.995667%, 36.079407%)" offset="0.492187"/><stop stop-opacity="1" stop-color="rgb(39.517212%, 69.128418%, 36.079407%)" offset="0.5"/><stop stop-opacity="1" stop-color="rgb(39.743042%, 69.261169%, 36.079407%)" offset="0.507812"/><stop stop-opacity="1" stop-color="rgb(39.968872%, 69.392395%, 36.079407%)" offset="0.515625"/><stop stop-opacity="1" stop-color="rgb(40.196228%, 69.525146%, 36.079407%)" offset="0.523438"/><stop stop-opacity="1" stop-color="rgb(40.422058%, 69.656372%, 36.079407%)" offset="0.53125"/><stop stop-opacity="1" stop-color="rgb(40.649414%, 69.789124%, 36.079407%)" offset="0.539062"/><stop stop-opacity="1" stop-color="rgb(40.875244%, 69.920349%, 36.079407%)" offset="0.546875"/><stop stop-opacity="1" stop-color="rgb(41.101074%, 70.053101%, 36.079407%)" offset="0.554688"/><stop stop-opacity="1" stop-color="rgb(41.32843%, 70.185852%, 36.079407%)" offset="0.5625"/><stop stop-opacity="1" stop-color="rgb(41.55426%, 70.317078%, 36.079407%)" offset="0.570312"/><stop stop-opacity="1" stop-color="rgb(41.78009%, 70.449829%, 36.079407%)" offset="0.578125"/><stop stop-opacity="1" stop-color="rgb(42.007446%, 70.581055%, 36.079407%)" offset="0.585938"/><stop stop-opacity="1" stop-color="rgb(42.233276%, 70.713806%, 36.079407%)" offset="0.59375"/><stop stop-opacity="1" stop-color="rgb(42.460632%, 70.845032%, 36.079407%)" offset="0.601563"/><stop stop-opacity="1" stop-color="rgb(42.686462%, 70.977783%, 36.079407%)" offset="0.609375"/><stop stop-opacity="1" stop-color="rgb(42.912292%, 71.110535%, 36.079407%)" offset="0.617188"/><stop stop-opacity="1" stop-color="rgb(43.139648%, 71.24176%, 36.079407%)" offset="0.625"/><stop stop-opacity="1" stop-color="rgb(43.365479%, 71.374512%, 36.079407%)" offset="0.632812"/><stop stop-opacity="1" stop-color="rgb(43.591309%, 71.505737%, 36.079407%)" offset="0.640625"/><stop stop-opacity="1" stop-color="rgb(43.818665%, 71.638489%, 36.079407%)" offset="0.648437"/><stop stop-opacity="1" stop-color="rgb(44.044495%, 71.769714%, 36.079407%)" offset="0.65625"/><stop stop-opacity="1" stop-color="rgb(44.270325%, 71.902466%, 36.079407%)" offset="0.664062"/><stop stop-opacity="1" stop-color="rgb(44.497681%, 72.035217%, 36.079407%)" offset="0.671875"/><stop stop-opacity="1" stop-color="rgb(44.723511%, 72.166443%, 36.079407%)" offset="0.679687"/><stop stop-opacity="1" stop-color="rgb(44.950867%, 72.299194%, 36.079407%)" offset="0.6875"/><stop stop-opacity="1" stop-color="rgb(45.176697%, 72.43042%, 36.079407%)" offset="0.695312"/><stop stop-opacity="1" stop-color="rgb(45.402527%, 72.563171%, 36.079407%)" offset="0.703125"/><stop stop-opacity="1" stop-color="rgb(45.629883%, 72.694397%, 36.079407%)" offset="0.710937"/><stop stop-opacity="1" stop-color="rgb(45.855713%, 72.827148%, 36.079407%)" offset="0.71875"/><stop stop-opacity="1" stop-color="rgb(46.081543%, 72.9599%, 36.079407%)" offset="0.726562"/><stop stop-opacity="1" stop-color="rgb(46.308899%, 73.091125%, 36.079407%)" offset="0.734375"/><stop stop-opacity="1" stop-color="rgb(46.534729%, 73.223877%, 36.079407%)" offset="0.742187"/><stop stop-opacity="1" stop-color="rgb(46.760559%, 73.355103%, 36.079407%)" offset="0.75"/><stop stop-opacity="1" stop-color="rgb(46.987915%, 73.487854%, 36.079407%)" offset="0.757812"/><stop stop-opacity="1" stop-color="rgb(47.213745%, 73.61908%, 36.079407%)" offset="0.765625"/><stop stop-opacity="1" stop-color="rgb(47.441101%, 73.751831%, 36.079407%)" offset="0.773438"/><stop stop-opacity="1" stop-color="rgb(47.666931%, 73.884583%, 36.079407%)" offset="0.78125"/><stop stop-opacity="1" stop-color="rgb(47.892761%, 74.015808%, 36.079407%)" offset="0.789062"/><stop stop-opacity="1" stop-color="rgb(48.120117%, 74.14856%, 36.079407%)" offset="0.796875"/><stop stop-opacity="1" stop-color="rgb(48.345947%, 74.279785%, 36.079407%)" offset="0.804688"/><stop stop-opacity="1" stop-color="rgb(48.571777%, 74.412537%, 36.079407%)" offset="0.8125"/><stop stop-opacity="1" stop-color="rgb(48.799133%, 74.543762%, 36.079407%)" offset="0.820312"/><stop stop-opacity="1" stop-color="rgb(49.024963%, 74.676514%, 36.079407%)" offset="0.828125"/><stop stop-opacity="1" stop-color="rgb(49.252319%, 74.809265%, 36.079407%)" offset="0.835938"/><stop stop-opacity="1" stop-color="rgb(49.478149%, 74.940491%, 36.079407%)" offset="0.84375"/><stop stop-opacity="1" stop-color="rgb(49.703979%, 75.073242%, 36.079407%)" offset="0.851562"/><stop stop-opacity="1" stop-color="rgb(49.931335%, 75.204468%, 36.079407%)" offset="0.859375"/><stop stop-opacity="1" stop-color="rgb(50.157166%, 75.337219%, 36.079407%)" offset="0.867188"/><stop stop-opacity="1" stop-color="rgb(50.382996%, 75.468445%, 36.079407%)" offset="0.875"/><stop stop-opacity="1" stop-color="rgb(50.610352%, 75.601196%, 36.079407%)" offset="0.882812"/><stop stop-opacity="1" stop-color="rgb(50.836182%, 75.733948%, 36.079407%)" offset="0.890625"/><stop stop-opacity="1" stop-color="rgb(51.062012%, 75.865173%, 36.079407%)" offset="0.898438"/><stop stop-opacity="1" stop-color="rgb(51.289368%, 75.997925%, 36.079407%)" offset="0.90625"/><stop stop-opacity="1" stop-color="rgb(51.515198%, 76.12915%, 36.079407%)" offset="0.914062"/><stop stop-opacity="1" stop-color="rgb(51.742554%, 76.261902%, 36.079407%)" offset="0.921875"/><stop stop-opacity="1" stop-color="rgb(51.968384%, 76.393127%, 36.079407%)" offset="0.929688"/><stop stop-opacity="1" stop-color="rgb(52.194214%, 76.525879%, 36.079407%)" offset="0.9375"/><stop stop-opacity="1" stop-color="rgb(52.42157%, 76.65863%, 36.079407%)" offset="0.945313"/><stop stop-opacity="1" stop-color="rgb(52.6474%, 76.789856%, 36.079407%)" offset="0.953125"/><stop stop-opacity="1" stop-color="rgb(52.87323%, 76.922607%, 36.079407%)" offset="0.960938"/><stop stop-opacity="1" stop-color="rgb(53.100586%, 77.053833%, 36.079407%)" offset="0.96875"/><stop stop-opacity="1" stop-color="rgb(53.326416%, 77.186584%, 36.079407%)" offset="0.976563"/><stop stop-opacity="1" stop-color="rgb(53.552246%, 77.31781%, 36.079407%)" offset="0.984375"/><stop stop-opacity="1" stop-color="rgb(53.779602%, 77.450562%, 36.079407%)" offset="0.992188"/><stop stop-opacity="1" stop-color="rgb(54.005432%, 77.583313%, 36.079407%)" offset="1"/></linearGradient></defs><g clip-path="url(#9a1727dd78)"><path fill="#231f20" d="M 146.554688 126.957031 L 130.074219 126.957031 L 130.375 127.648438 C 130.492188 127.953125 130.570312 128.265625 130.605469 128.589844 L 146.554688 128.589844 C 146.878906 128.589844 147.1875 128.652344 147.488281 128.773438 C 147.785156 128.898438 148.046875 129.074219 148.277344 129.300781 C 148.507812 129.53125 148.683594 129.792969 148.804688 130.089844 C 148.929688 130.386719 148.992188 130.699219 148.992188 131.023438 L 148.992188 148.542969 C 148.992188 148.867188 148.929688 149.175781 148.804688 149.476562 C 148.683594 149.773438 148.507812 150.035156 148.277344 150.265625 C 148.050781 150.492188 147.785156 150.667969 147.488281 150.792969 C 147.1875 150.914062 146.878906 150.976562 146.554688 150.976562 L 134.308594 150.976562 C 133.53125 150.976562 132.871094 151.25 132.328125 151.800781 L 123.804688 160.378906 C 123.75 160.445312 123.6875 160.457031 123.617188 160.414062 C 123.546875 160.382812 123.515625 160.332031 123.515625 160.257812 L 123.515625 151.792969 C 123.515625 151.570312 123.4375 151.375 123.277344 151.21875 C 123.117188 151.058594 122.925781 150.976562 122.699219 150.976562 L 117.277344 150.976562 C 116.953125 150.976562 116.640625 150.914062 116.34375 150.792969 C 116.046875 150.667969 115.78125 150.492188 115.554688 150.265625 C 115.324219 150.035156 115.148438 149.773438 115.023438 149.476562 C 114.902344 149.175781 114.839844 148.867188 114.839844 148.542969 L 114.839844 131.023438 C 114.839844 130.699219 114.902344 130.386719 115.023438 130.089844 C 115.148438 129.792969 115.324219 129.53125 115.554688 129.300781 C 115.78125 129.074219 116.046875 128.898438 116.34375 128.773438 C 116.644531 128.652344 116.953125 128.589844 117.277344 128.589844 L 119.738281 128.589844 C 119.738281 128.226562 119.769531 127.867188 119.828125 127.511719 C 119.859375 127.324219 119.898438 127.140625 119.945312 126.957031 L 117.277344 126.957031 C 117.007812 126.957031 116.746094 126.984375 116.484375 127.035156 C 116.21875 127.089844 115.964844 127.167969 115.71875 127.269531 C 115.472656 127.371094 115.238281 127.496094 115.015625 127.644531 C 114.792969 127.792969 114.585938 127.960938 114.398438 128.148438 C 114.210938 128.335938 114.039062 128.542969 113.890625 128.765625 C 113.742188 128.984375 113.617188 129.21875 113.515625 129.464844 C 113.414062 129.714844 113.335938 129.96875 113.285156 130.230469 C 113.230469 130.492188 113.203125 130.753906 113.203125 131.023438 L 113.203125 148.542969 C 113.203125 148.808594 113.230469 149.074219 113.285156 149.335938 C 113.335938 149.597656 113.414062 149.851562 113.515625 150.097656 C 113.617188 150.34375 113.742188 150.578125 113.890625 150.800781 C 114.039062 151.023438 114.210938 151.230469 114.398438 151.417969 C 114.585938 151.605469 114.792969 151.773438 115.015625 151.921875 C 115.238281 152.070312 115.472656 152.195312 115.71875 152.300781 C 115.964844 152.402344 116.21875 152.480469 116.480469 152.53125 C 116.746094 152.582031 117.007812 152.609375 117.277344 152.609375 L 121.882812 152.609375 L 121.882812 160.257812 C 121.878906 160.621094 121.980469 160.953125 122.179688 161.257812 C 122.382812 161.558594 122.648438 161.777344 122.984375 161.917969 C 123.210938 162.015625 123.441406 162.0625 123.6875 162.0625 C 124.1875 162.0625 124.613281 161.886719 124.964844 161.527344 L 133.488281 152.953125 C 133.710938 152.722656 133.984375 152.609375 134.308594 152.609375 L 146.554688 152.609375 C 146.820312 152.609375 147.085938 152.582031 147.347656 152.53125 C 147.609375 152.480469 147.863281 152.402344 148.113281 152.300781 C 148.359375 152.195312 148.59375 152.070312 148.816406 151.921875 C 149.039062 151.773438 149.242188 151.605469 149.433594 151.417969 C 149.621094 151.230469 149.789062 151.023438 149.9375 150.800781 C 150.085938 150.578125 150.210938 150.34375 150.316406 150.097656 C 150.417969 149.851562 150.496094 149.597656 150.546875 149.335938 C 150.601562 149.074219 150.625 148.808594 150.625 148.542969 L 150.625 131.023438 C 150.625 130.753906 150.601562 130.492188 150.546875 130.230469 C 150.496094 129.96875 150.417969 129.714844 150.316406 129.464844 C 150.210938 129.21875 150.085938 128.984375 149.9375 128.765625 C 149.789062 128.542969 149.621094 128.335938 149.433594 128.148438 C 149.242188 127.960938 149.039062 127.792969 148.816406 127.644531 C 148.59375 127.496094 148.359375 127.371094 148.113281 127.269531 C 147.863281 127.167969 147.609375 127.089844 147.347656 127.035156 C 147.085938 126.984375 146.820312 126.957031 146.554688 126.957031 Z M 146.554688 126.957031 " fill-opacity="1" fill-rule="nonzero"/></g><g clip-path="url(#7e4dec19a6)"><path fill="#231f20" d="M 125.667969 139.761719 L 125.671875 139.765625 C 127.679688 142.503906 130.03125 144.90625 132.726562 146.972656 C 133.332031 147.429688 133.996094 147.777344 134.714844 148.015625 C 135.351562 148.21875 136.007812 148.320312 136.675781 148.316406 C 138.597656 148.316406 140.574219 147.527344 141.632812 146.203125 C 141.632812 146.199219 141.652344 146.175781 141.65625 146.171875 C 142.171875 145.546875 142.359375 144.832031 142.21875 144.035156 C 142.078125 143.28125 141.703125 142.664062 141.101562 142.191406 L 138.171875 139.636719 C 138.164062 139.625 138.152344 139.617188 138.144531 139.609375 C 137.839844 139.367188 137.5 139.195312 137.125 139.085938 C 136.75 138.976562 136.367188 138.945312 135.980469 138.988281 C 135.59375 139.03125 135.230469 139.148438 134.886719 139.335938 C 134.546875 139.523438 134.253906 139.769531 134.007812 140.074219 L 133.648438 140.523438 C 131.035156 138.046875 128.945312 135.1875 127.375 131.949219 L 127.921875 131.742188 C 128.285156 131.601562 128.609375 131.398438 128.890625 131.128906 C 129.171875 130.863281 129.394531 130.550781 129.554688 130.195312 C 129.710938 129.839844 129.796875 129.46875 129.808594 129.078125 C 129.820312 128.6875 129.753906 128.3125 129.617188 127.949219 C 129.613281 127.9375 129.609375 127.925781 129.601562 127.914062 L 128.058594 124.351562 C 127.789062 123.628906 127.316406 123.089844 126.640625 122.722656 C 125.910156 122.347656 125.164062 122.3125 124.402344 122.617188 C 122.582031 123.3125 121 125.421875 120.636719 127.640625 C 120.464844 128.726562 120.5625 129.789062 120.933594 130.824219 C 122.085938 134.027344 123.664062 137.007812 125.667969 139.761719 Z M 122.25 127.902344 C 122.546875 126.089844 123.875 124.566406 125.011719 124.132812 C 125.308594 124.011719 125.601562 124.023438 125.886719 124.171875 C 126.203125 124.347656 126.417969 124.609375 126.539062 124.949219 C 126.542969 124.960938 126.546875 124.972656 126.550781 124.984375 L 128.09375 128.546875 C 128.15625 128.707031 128.179688 128.875 128.175781 129.042969 C 128.167969 129.214844 128.128906 129.378906 128.058594 129.535156 C 127.988281 129.691406 127.890625 129.828125 127.765625 129.949219 C 127.640625 130.066406 127.496094 130.15625 127.335938 130.214844 L 125.972656 130.738281 C 125.753906 130.820312 125.597656 130.972656 125.507812 131.1875 C 125.417969 131.40625 125.421875 131.621094 125.519531 131.835938 C 127.335938 135.871094 129.890625 139.371094 133.191406 142.324219 C 133.367188 142.484375 133.570312 142.550781 133.804688 142.53125 C 134.039062 142.511719 134.226562 142.410156 134.375 142.230469 L 135.285156 141.09375 C 135.394531 140.957031 135.523438 140.847656 135.671875 140.765625 C 135.824219 140.683594 135.984375 140.632812 136.15625 140.609375 C 136.324219 140.589844 136.496094 140.605469 136.660156 140.648438 C 136.824219 140.695312 136.976562 140.773438 137.113281 140.878906 L 140.035156 143.433594 C 140.046875 143.441406 140.054688 143.449219 140.066406 143.457031 C 140.355469 143.671875 140.535156 143.957031 140.609375 144.3125 C 140.664062 144.625 140.589844 144.902344 140.386719 145.148438 C 140.382812 145.148438 140.363281 145.175781 140.359375 145.175781 C 139.460938 146.300781 137.125 147.101562 135.210938 146.457031 C 135.160156 146.441406 135.109375 146.429688 135.054688 146.421875 C 134.632812 146.25 134.234375 146.039062 133.851562 145.789062 C 133.820312 145.757812 133.785156 145.726562 133.75 145.699219 C 131.164062 143.726562 128.910156 141.425781 126.992188 138.800781 C 125.074219 136.179688 123.566406 133.335938 122.472656 130.273438 C 122.195312 129.503906 122.121094 128.714844 122.25 127.902344 Z M 122.25 127.902344 " fill-opacity="1" fill-rule="nonzero"/></g><path fill="#ffffff" d="M 191.84375 383.796875 C 86.003906 383.796875 -0.105469 297.6875 -0.105469 191.847656 C -0.105469 86.007812 86.003906 -0.105469 191.84375 -0.105469 C 297.6875 -0.105469 383.796875 86.003906 383.796875 191.847656 C 383.796875 297.691406 297.6875 383.796875 191.84375 383.796875 Z M 191.84375 30.445312 C 102.847656 30.445312 30.445312 102.847656 30.445312 191.847656 C 30.445312 280.84375 102.847656 353.25 191.84375 353.25 C 280.84375 353.25 353.25 280.84375 353.25 191.847656 C 353.25 102.847656 280.84375 30.445312 191.84375 30.445312 Z M 191.84375 30.445312 " fill-opacity="1" fill-rule="nonzero"/><path fill="#ffffff" d="M 188.132812 213.023438 C 172.34375 200.039062 161.800781 184.019531 156.261719 174.90625 L 152.128906 167.113281 C 153.574219 165.558594 164.59375 153.753906 169.371094 147.351562 C 175.375 139.3125 166.671875 132.046875 166.671875 132.046875 C 166.671875 132.046875 142.179688 107.554688 136.597656 102.695312 C 131.019531 97.828125 124.59375 100.535156 124.59375 100.535156 C 112.863281 108.113281 100.703125 114.703125 99.972656 146.394531 C 99.945312 176.066406 122.46875 206.667969 146.828125 230.363281 C 171.222656 257.117188 204.71875 283.9375 237.101562 283.90625 C 268.792969 283.183594 275.378906 271.023438 282.960938 259.292969 C 282.960938 259.292969 285.664062 252.871094 280.800781 247.289062 C 275.941406 241.703125 251.445312 217.207031 251.445312 217.207031 C 251.445312 217.207031 244.1875 208.503906 236.144531 214.511719 C 230.144531 218.992188 219.382812 228.960938 216.789062 231.378906 C 216.792969 231.378906 198.785156 221.78125 188.132812 213.023438 Z M 188.132812 213.023438 " fill-opacity="1" fill-rule="nonzero"/><g clip-path="url(#3378a73862)"><rect x="-38.4" fill="url(#3725000e49)" width="460.8" y="-38.399999" height="460.799983"/></g><path fill="#ffffff" d="M 192.09375 85.035156 C 133.628906 85.035156 86.234375 132.429688 86.234375 190.894531 C 86.234375 216.664062 95.445312 240.277344 110.75 258.636719 L 97.035156 298.964844 L 135.871094 280.601562 C 152.160156 290.832031 171.4375 296.753906 192.09375 296.753906 C 250.558594 296.753906 297.953125 249.359375 297.953125 190.894531 C 297.953125 132.429688 250.558594 85.035156 192.09375 85.035156 Z M 240.449219 223.769531 L 233.652344 228.878906 C 230.734375 231.484375 226.601562 232.695312 221.648438 232.378906 C 217.40625 232.105469 212.570312 230.742188 207.277344 228.320312 C 197.367188 223.785156 186.410156 215.789062 176.429688 205.808594 C 166.445312 195.828125 158.453125 184.871094 153.917969 174.957031 C 151.496094 169.664062 150.128906 164.832031 149.859375 160.585938 C 149.542969 155.632812 150.75 151.5 153.355469 148.582031 L 159.878906 139.90625 C 160.875 138.582031 162.519531 137.910156 164.15625 138.160156 L 166.480469 138.511719 C 169.628906 138.992188 172.210938 141.253906 173.097656 144.308594 C 174.148438 147.929688 176.304688 153.03125 178.078125 156.988281 C 179.726562 160.664062 178.9375 164.96875 176.089844 167.816406 C 172.988281 170.917969 172.523438 175.796875 175.015625 179.40625 C 178.496094 184.449219 182.847656 189.648438 187.71875 194.519531 C 192.589844 199.386719 197.789062 203.742188 202.828125 207.222656 C 206.4375 209.710938 211.320312 209.246094 214.421875 206.144531 C 217.265625 203.300781 221.574219 202.507812 225.246094 204.15625 C 229.207031 205.933594 234.304688 208.085938 237.925781 209.140625 C 240.984375 210.027344 243.246094 212.609375 243.722656 215.753906 C 244.191406 218.824219 242.933594 221.90625 240.449219 223.769531 Z M 240.449219 223.769531 " fill-opacity="1" fill-rule="nonzero"/><path fill="#ffffff" d="M 192 366.804688 C 168.402344 366.804688 145.511719 362.183594 123.957031 353.066406 C 103.140625 344.261719 84.445312 331.660156 68.394531 315.605469 C 52.339844 299.554688 39.738281 280.859375 30.933594 260.042969 C 21.816406 238.488281 17.195312 215.597656 17.195312 192 C 17.195312 168.402344 21.816406 145.511719 30.933594 123.957031 C 39.738281 103.140625 52.339844 84.445312 68.394531 68.394531 C 84.445312 52.339844 103.140625 39.738281 123.957031 30.933594 C 145.511719 21.816406 168.402344 17.195312 192 17.195312 C 215.597656 17.195312 238.488281 21.816406 260.042969 30.933594 C 280.859375 39.738281 299.554688 52.339844 315.605469 68.394531 C 331.660156 84.445312 344.261719 103.140625 353.066406 123.957031 C 362.183594 145.511719 366.804688 168.402344 366.804688 192 C 366.804688 215.597656 362.183594 238.488281 353.066406 260.042969 C 344.261719 280.859375 331.660156 299.554688 315.605469 315.605469 C 299.554688 331.660156 280.859375 344.261719 260.042969 353.066406 C 238.488281 362.183594 215.597656 366.804688 192 366.804688 Z M 192 25.121094 C 169.46875 25.121094 147.613281 29.53125 127.042969 38.234375 C 107.171875 46.636719 89.324219 58.671875 74 74 C 58.671875 89.324219 46.636719 107.171875 38.234375 127.042969 C 29.53125 147.613281 25.121094 169.46875 25.121094 192 C 25.121094 214.53125 29.53125 236.386719 38.234375 256.957031 C 46.636719 276.828125 58.671875 294.675781 74 310 C 89.324219 325.328125 107.171875 337.363281 127.042969 345.765625 C 147.613281 354.46875 169.46875 358.878906 192 358.878906 C 214.53125 358.878906 236.386719 354.46875 256.957031 345.765625 C 276.828125 337.363281 294.675781 325.328125 310 310 C 325.328125 294.675781 337.363281 276.828125 345.765625 256.957031 C 354.46875 236.386719 358.878906 214.53125 358.878906 192 C 358.878906 169.46875 354.46875 147.613281 345.765625 127.042969 C 337.363281 107.171875 325.328125 89.324219 310 74 C 294.675781 58.671875 276.828125 46.636719 256.957031 38.234375 C 236.386719 29.53125 214.53125 25.121094 192 25.121094 Z M 192 25.121094 " fill-opacity="1" fill-rule="nonzero"/></svg>